<svg xmlns="http://www.w3.org/2000/svg" viewBox="166 192 912 463"><path fill="none" stroke="#011327" stroke-width=".3" d="M410 235c21.83-17.27 47.52-28.34 75-31-2.33-2.15 8.74-.31 13-1s12.44 1.38 16 0c-7.09-1.69-14.46-1.98-21.33-3.67s-17-.22-23.66.68-13.65 3.29-19.79 5.21-11.1 5.58-16.52 8.48-10.26 5.9-14.45 10.55c-4.2 4.64-10.01 8.07-8.25 10.75Z"/><path fill="none" stroke="#02e4ec" stroke-width=".3" d="M410 235c-.34.27-.63 1.6-1 2 17.18-11.11 35.73-21.64 57.67-26.33s49.99-2.39 71.4 4.26c21.41 6.64 35.91 21.06 52.93 32.07-28.51-28.51-64.22-47.04-106-43-27.48 2.66-53.17 13.73-75 31Z"/><path fill="none" stroke="#00dbfb" stroke-width=".3" d="M409 237c-9.07 9.73-17.05 17.9-24 29 9.58-11.67 14.32-17.23 26.75-27.25S432.83 247.6 445 251c-.65 2.57.57 6.55 3 7-3.37 8.98-18.69 15.11-19 25 6.88-9.16 16.39-16.47 26-22 10.33-11.4 31.57-15.88 48-14s32.62 8.27 41 20c12.56 9.43 21.17 23.89 30 36 12.19 16.73 25.83 33.31 38 50-.31-.84-.3-3.32-1-5-2.83-6.74-8.46-13.3-13-19-8.41-10.54-15.69-22.37-24-33-11.43-14.62-27.01-28.86-36-43 5.01-.69 9.51-7.04 15-4-.29-2.53-1.05-4.03 1-6 2.49 3.71 8.09 2.35 10.25-.75 2.16-3.09 8.17-.47 7.75-5.25 17.38 3.76 27.6 28.15 40 37-6.78-9.11-12.89-18.89-21-27-17.02-11.01-31.52-25.43-52.93-32.07s-49.45-8.94-71.4-4.26c-21.94 4.69-40.49 15.22-57.67 26.33Z"/><path fill="none" stroke="#024a50" stroke-width=".3" d="M639 256c-5.69-2.1-9.24-11.69-14.75-15.25s-9.75-10.63-15-15S598.67 214.92 594 210h123c-.25-.27 0-1 0-1H593c6.32 7.74 14.53 17.78 22.75 24.25S629.68 251.44 639 256Z"/><path fill="none" stroke="#14344a" stroke-width=".3" d="M717 210h46c1 0 2-.03 3 0-15-2.69-33.09-1-49-1 0 0-.25.73 0 1Z"/><path fill="none" stroke="#29dff3" stroke-width=".3" d="M639 256c8.81 3.25 20.5-1.41 30 0s20.14-.5 30 0 21.02 0 31 0h24c-6.39-.62-14.16-2.4-21-3-7.86-.69-16.1 0-24 0-11.36 0-25.96.95-37 0s-25.98 3.93-34-3c-12.32-10.64-24.8-23.28-34-36 22.52-1.96 45.87-.06 67-4h-77c4.67 4.92 10 11.38 15.25 15.75s9.49 11.44 15 15S633.31 253.9 639 256Z"/><path fill="none" stroke="#01cffc" stroke-width=".3" d="M638 250c-3.35-3.52-8.07-7.47-6-13 4.83-1.81 7.43-7.15 9-12 6.62-.95 8.87-11.24 19-11s23.72-1.27 33-4h-22c-21.13 3.94-44.48 2.04-67 4 9.2 12.72 21.68 25.36 34 36Z"/><path fill="none" stroke="#09befc" stroke-width=".3" d="M638 250c8.02 6.93 22.96 2.05 34 3s25.64 0 37 0c-12.34-1.19-27.99-2.35-40.22-4.78s-.75-8.62-5.78-13.22c8.74-4.84 7.2-19.65 19.01-20.99s26.35-2.84 37.99-4.01h-27c-9.28 2.73-22.87 4.24-33 4s-12.38 10.05-19 11c-1.57 4.85-4.17 10.19-9 12-2.07 5.53 2.65 9.48 6 13Z"/><path fill="none" stroke="#1cabfb" stroke-width=".3" d="M709 253c7.9 0 16.14-.69 24 0-9.52-1.94-14.05-4.31-24.22-6.78-10.17-2.46-6.64-10.33-.53-15.97 6.12-5.63 4.35-13.49 11.05-15.95 6.7-2.47 20.63-3.62 27.7-4.3h-27a3217 3217 0 0 0-37.99 4.01C670.2 215.35 671.74 230.16 663 235c5.03 4.6-6.46 10.79 5.78 13.22s27.88 3.59 40.22 4.78Z"/><path fill="none" stroke="#3298fa" stroke-width=".3" d="M733 253c6.84.6 14.61 2.38 21 3 3.6 0 9.3-1 12 1h1c2.05-2.42-7.35-5.01-11.07-4.93s-11.08-1.4-15.15-2.85c-4.07-1.44-8.79-4.33-12.78-6.22 5.26-9.59 14.41-17.9 16-29a149 149 0 0 1 19-4h-16c-7.07.68-21 1.83-27.7 4.3s-4.93 10.32-11.05 15.95c-6.11 5.64-9.64 13.51.53 15.97s14.7 4.84 24.22 6.78Z"/><path fill="none" stroke="#4184f9" stroke-width=".3" d="M767 257c7.29-.49 16.64 2.86 23 6-2.77-3.01-6.74-6.85-13.01-6.99S771.82 245.3 766 244c1.95-2.29 3.63-4.03 2-7 6.01-5.76 7.7-6.61 10.78-15.22s13.53-3.27 20.22-4.78c-10.72-3.44-21.43-6.61-33-7-1-.03-2 0-3 0-6.05.85-12.86 2.27-19 4-1.59 11.1-10.74 19.41-16 29 3.99 1.89 8.71 4.78 12.78 6.22 4.07 1.45 11.42 2.94 15.15 2.85 3.72-.08 13.12 2.51 11.07 4.93Z"/><path fill="none" stroke="#4d72f9" stroke-width=".3" d="M790 263a86 86 0 0 1 9 5s2.52-1.29 2-2c-4.05-1.96-7.51-5.13-12-6 2.65-3.68-2.62-5.97-5-8 2.3-6.04 10.54-9.72 12.77-16.23S808.15 225.93 810 221c-3.77-1.82-7.14-2.76-11-4-6.69 1.51-17.15-3.84-20.22 4.78-3.08 8.61-4.77 9.46-10.78 15.22 1.63 2.97-.05 4.71-2 7 5.82 1.3 4.73 11.87 10.99 12.01s10.24 3.98 13.01 6.99Z"/><path fill="none" stroke="#5d5af8" stroke-width=".3" d="M799 268c12.07 8.11 24.05 21.57 29 35-.01.05 4.78-2.27.68-6.68S823.19 285.37 821 280c-1.52 3.75-5.81-1.62-6-4 5.74-1.32 6.77-5.46 8.71-9.3 1.93-3.83 8.46-7.74 7.29-12.7 4.73-1.03 15.06-.34 10-8 4.38-2.3 6.33 4.57 10 6-3.41-3.95-7.23-8.51-11-12a161 161 0 0 0-30-19c-1.85 4.93-11 8.26-13.23 14.77S786.3 245.96 784 252c2.38 2.03 7.65 4.32 5 8 4.49.87 7.95 4.04 12 6 .52.71-2 2-2 2Z"/><path fill="none" stroke="#00bffa" stroke-width=".3" d="M385 266a97 97 0 0 0-4 7c5.74-7.27 10.06-7.49 14.25-16.75 4.2-9.25 12.7-8.66 13.08 1.42S422.16 264.73 426 269c-.72 4.54 2.93 3.36 6 5-6.44 7.97-13.33 18.06-13 27a75 75 0 0 1 10-18c.31-9.89 15.63-16.02 19-25-2.43-.45-3.65-4.43-3-7-12.17-3.4-20.83-22.28-33.25-12.25-12.43 10.02-17.17 15.58-26.75 27.25Z"/><path fill="none" stroke="#00cdfc" stroke-width=".3" d="M574 296c-.51-1.16-1.68-1.78-2-3 5.75-3.67 7.81-11.3 16-13 1.25-6.59 11.3-6.09 14-13 9.78 8.6 15.94 20.09 24 30a165 165 0 0 0 9 8c-8.07-9.83-15.49-20.9-23-31-12.4-8.85-22.62-33.24-40-37 .42 4.78-5.59 2.16-7.75 5.25-2.16 3.1-7.76 4.46-10.25.75-2.05 1.97-1.29 3.47-1 6-5.49-3.04-9.99 3.31-15 4 8.99 14.14 24.57 28.38 36 43Z"/><path fill="none" stroke="#391c68" stroke-width=".3" d="M851 252c1.1 1.09 2.96 2.8 4 4-3.87-5.87-9.31-11.51-15-16 3.77 3.49 7.59 8.05 11 12Z"/><path fill="none" stroke="#722ff8" stroke-width=".3" d="M828 303c.38 1.03.64 1.98 1 3 2.7 7.65 5 14.59 5 23 .34 3.56.51 7.45 0 11-.54 14.15-5.82 28.55-14 40-4.96 6.94-9.99 12.1-17.08 16.92-7.1 4.81-14.03 10.35-22.99 12.01-8.97 1.66-20.92 5.22-30.93 3.07s-25.49 3.87-35 0c6.27 3.8 16.58.91 24 2-6.03 1.11-17.58 1.96-24 1s-6.45-10.59-11-14c-1.36 5.61-7.59 12.82-15 14 .07 5.34-6.49 4.76-8.11 7.9-1.61 3.13-6.38 3.85-10.89 3.1 2.12 7.32 14.91 14.18 11 21 2.29 3.08 4.69 9.18 8 11 6.9 2.52 19.57 0 27 0 20.18-3.9 50.28.05 70-5 19.73-5.05 34.81-12.62 50.25-24.75S859.2 401.53 870 387c14.43-19.41 12.55-47.81 11-71s-13.62-41.2-26-60c-1.04-1.2-2.9-2.91-4-4-3.67-1.43-5.62-8.3-10-6 5.06 7.66-5.27 6.97-10 8 1.17 4.96-5.36 8.87-7.29 12.7-1.94 3.84-2.97 7.98-8.71 9.3.19 2.38 4.48 7.75 6 4 2.19 5.37 3.58 11.91 7.68 16.32s-.69 6.73-.68 6.68Z"/><path fill="none" stroke="#02e6ef" stroke-width=".3" d="M455 261c8.1-4.66 15.81-7.32 25-9 22.91-4.18 45.39 1.02 64 15-8.38-11.73-24.57-18.12-41-20s-37.67 2.6-48 14Z"/><path fill="none" stroke="#00adf9" stroke-width=".3" d="M381 273a119 119 0 0 0-8 20c2.81-4.29 8.81-12.84 12-19 2.2 7.78 7.35 13.47 15.23 16.77s15.81 4.96 13.45 15.91S410.19 326.29 395 322c-2.41-6.34.57-18.33-2-22-.85 2.6-.36 8.27 0 11s-1.52 9.83 0 12c4.99-2.36 15.57 3.15 20 0 1.21-1.27.76-2.21 1-4 .85-6.3 2.76-12.07 5-18-.33-8.94 6.56-19.03 13-27-3.07-1.64-6.72-.46-6-5-3.84-4.27-17.29-1.25-17.67-11.33s-8.88-10.67-13.08-1.42-8.51 9.48-14.25 16.75Z"/><path fill="none" stroke="#00030f" stroke-width=".3" d="M480 252c.88.19 3.46 1.42 3 3-7.55 1.5-17.7 3.25-22.25 9.75S446.38 268.79 447 280c-4.94-.99-9.74 4.58-8 9-9.06 2.54-5.27 13.86-14 18-.75 4.77-3.59 17.52-11 12-.24 1.79.21 2.73-1 4-1.77 1.86-6.4 1-9 1 .89.39 2.27 1.7 2 3-2.85 1.17-5.82 2-9 2-6.24 5.3-3.83 15.63-11 19 1.33 2.5 5.74-.57 7 2 7.26.7 14.72-.53 22 0 4.27 26.35 25.54 48.85 50 59 6.64.71 15.24-.2 22.68-1.32s19.13 2.76 26.39-2.61 5.22.98 12.6-2.4 15.83-4.88 22.58-9.42c5.98-5.85 11.54-10.86 15.75-17.25a79 79 0 0 0 8-16 69 69 0 0 0 3-10c.89-4.24 1.26-9.35 3-13 5.75 8.54 12.37 16.41 18 25 .94.94 2.78 1.44 3 3 8.21-2.05 3.54-9.57-.08-13.92S589.03 349.42 587 344c2.35-.26 6.07 1.03 7-2-2.74-2.93-6.53-6.11-3-10-7.59-7.5-15.62-18.65-17-29-8.83-12.11-17.44-26.57-30-36-18.61-13.98-41.09-19.18-64-15Z"/><path fill="none" stroke="#000f25" stroke-width=".3" d="M455 261c-9.61 5.53-19.12 12.84-26 22a75 75 0 0 0-10 18c-2.24 5.93-4.15 11.7-5 18 7.41 5.52 10.25-7.23 11-12 8.73-4.14 4.94-15.46 14-18-1.74-4.42 3.06-9.99 8-9-.62-11.21 9.19-8.76 13.75-15.25 4.55-6.5 14.7-8.25 22.25-9.75.46-1.58-2.12-2.81-3-3-9.19 1.68-16.9 4.34-25 9Z"/><path fill="none" stroke="#0c465f" stroke-width=".3" d="M644 257c28.56 1.14 57.41 0 86 0-.04 0 0-1 0-1-9.98 0-21.14.5-31 0s-20.5 1.41-30 0-21.19 3.25-30 0c1.7.83 2.74.91 5 1Z"/><path fill="none" stroke="#274165" stroke-width=".3" d="M730 257h36c-2.7-2-8.4-1-12-1h-24s-.04 1 0 1Z"/><path fill="none" stroke="#040a2a" stroke-width=".3" d="M829 306c-.36-1.02-.62-1.97-1-3-4.95-13.43-16.93-26.89-29-35a86 86 0 0 0-9-5c-6.36-3.14-15.71-6.49-23-6h-37c-28.59 0-57.44 1.14-86 0 1.88 3.09 10.08 3.92 16 4s14.14.66 19.98 2.02c5.83 1.37 13.38 1.65 19.34 1.32 5.97-.33 13.2-.87 19.68-.34 6.47.52 14.28-1.41 19.92-1.93s10.92 3.95 17.06.91 10.64.45 16.33 1.67c5.69 1.21 12.01.92 17.46 4.58s8.6 6.58 12.33 9.67 10.14 6.15 12.98 11.02 7.7 8.09 8.92 14.08c1.93-1.57 3.97.55 5 2Z"/><path fill="none" stroke="#00bafc" stroke-width=".3" d="M574 296c8.31 10.63 15.59 22.46 24 33-9.91-18.96 8.41-29.54 22-39 2.11 2.29 3.64 5.22 6 7-8.06-9.91-14.22-21.4-24-30-2.7 6.91-12.75 6.41-14 13-8.19 1.7-10.25 9.33-16 13 .32 1.22 1.49 1.84 2 3Z"/><path fill="none" stroke="#009cf6" stroke-width=".3" d="M373 293c-.51 1.67-1.67 3.91-2 6 2.73 4.28 17.48-.84 22 1 2.57 3.67-.41 15.66 2 22 15.19 4.29 16.31-4.38 18.68-15.32 2.36-10.95-5.57-12.61-13.45-15.91S387.2 281.78 385 274c-3.19 6.16-9.19 14.71-12 19Z"/><path fill="none" stroke="#0aa5f9" stroke-width=".3" d="M598 329c4.54 5.7 10.17 12.26 13 19a156 156 0 0 1 11 19c2.99 3.98 6.14 8.16 9 12-2.15-6.77-4.82-13.05-10.3-19.7s-1.75-15.68-1.7-22.3c4.97-2.07 6.8-8.11 11.23-9.77s10.94-1.17 10.77-7.23c8 6.21 14.86 18.52 22 23-9.41-12.54-18.15-26-28-38a165 165 0 0 1-9-8c-2.36-1.78-3.89-4.71-6-7-13.59 9.46-31.91 20.04-22 39Z"/><path fill="none" stroke="#001333" stroke-width=".3" d="M376 368c.11-.75 1.9-2.58 1-4 9.88 1.44 8.17-11.59 15-14 .49-.06 1 0 1 0-1.26-2.57-5.67.5-7-2 7.17-3.37 4.76-13.7 11-19 3.18 0 6.15-.83 9-2 .27-1.3-1.11-2.61-2-3-2.63 0-9.48 1.17-11-1s.36-9.27 0-12-.85-8.4 0-11c-4.52-1.84-19.27 3.28-22-1-1.79 2.51.91 6.64 3 9-5.36 7.94-17.64 4.86-23.75 12.25S342.3 337.5 349 345c-4.38 16.08 17.35 10.8 27 11v12m-11-18c-3.21 0-9.82 1.18-12-1-4.9-4.16.8-15.1-1-22s14.26-5 19-5c1.56 0 3.47-.3 5 0 9.03 1.26 1.15 10.14 4 19s-7.36 9-15 9Z"/><path fill="none" stroke="#040720" stroke-width=".3" d="M597 362c2.61 3.31 6.47 7.05 8.25 10.75 1.79 3.69 7.67 7.1 7.75 11.25 1.54-.96 1.86-3.41 4-4 12.29-1.38 12.5 16.97 23 19 2.73 10.04 9.98 14.74 15.25 22.75s11.24 14.82 15.5 22.5S681.67 457.65 689 464c9.24-2.28 20.93.47 29.99.99s21.41-.61 29.98.03 19.1.32 27.78-1.22 15.66-5.23 23.5-6.54 10.9-7.12 19.75-6.26c20.39-14.91 41.32-28.83 46-54-19.58 35.14-60.95 61-101 61-10.97 1.06-26.48 2.67-38 1s-29.24 4.38-39-1c-3.31-1.82-5.71-7.92-8-11-4.76-6.4-9.33-12.6-14-19-4.82-6.61-9.18-13.51-14-20-2.89-3.88-6.15-7.89-9-12-3.83-5.53-7.94-11.54-12-17-2.86-3.84-6.01-8.02-9-12-3.35-4.46-6.79-9.6-10-14-12.17-16.69-25.81-33.27-38-50 1.38 10.35 9.41 21.5 17 29-3.53 3.89.26 7.07 3 10-.93 3.03-4.65 1.74-7 2 2.03 5.42 9.3 2.73 12.92 7.08s8.29 11.87.08 13.92c-.22-1.56-2.06-2.06-3-3Z"/><path fill="none" stroke="#188ff9" stroke-width=".3" d="M631 379c4.06 5.46 8.17 11.47 12 17-3.25-9.6-12.17-20.72-11.66-31.68s8.79-4.6 6.66-13.32c6.12.74 9.16-6.82 15-5-.68-3.05 3.28-3.54 2-7 5.7 3.93 10.23 13.57 16 15-2.7-3.6-5.35-7.47-8-11-7.14-4.48-14-16.79-22-23 .17 6.06-6.34 5.57-10.77 7.23s-6.26 7.7-11.23 9.77c-.05 6.62-3.79 15.66 1.7 22.3s8.15 12.93 10.3 19.7Z"/><path fill="none" stroke="#18c8e2" stroke-width=".3" d="M353 349c.97.82 3.86-.62 5 0-9.78-2.61-2.41-10.09-4-19s12.79-3.98 17-8c-4.74 0-20.8-1.9-19 5s-3.9 17.84 1 22Z"/><path fill="none" stroke="#05baf9" stroke-width=".3" d="M353 349c2.18 2.18 8.79 1 12 1 .81-.15 3.35-1.21 4-2-12.2 1.63-7.69-6.57-5.23-13.23S369.9 322.1 379 324c-.24-1.67-2.85-.17-3-2-1.53-.3-3.44 0-5 0-4.21 4.02-18.59-.91-17 8s-5.78 16.39 4 19c-1.14-.62-4.03.82-5 0Z"/><path fill="none" stroke="#0a94f5" stroke-width=".3" d="M365 350c7.64 0 17.85-.14 15-9s5.03-17.74-4-19c.15 1.83 2.76.33 3 2-9.1-1.9-12.77 4.11-15.23 10.77S356.8 349.63 369 348c-.65.79-3.19 1.85-4 2Z"/><path fill="none" stroke="#00507d" stroke-width=".3" d="M404 324c2.6 0 7.23.86 9-1-4.43 3.15-15.01-2.36-20 0 1.52 2.17 8.37 1 11 1Z"/><path fill="none" stroke="#431b81" stroke-width=".3" d="M834 340c.51-3.55.34-7.44 0-11 0 3.66.14 7.35 0 11Z"/><path fill="none" stroke="#0751cb" stroke-width=".3" d="M576 350c1.32-1.26 3.49 11.91 5.99 16.01 2.5 4.09 7.89 10.72 9.94 16.06 2.04 5.35 10.31 10.18 7.07 16.93 3.61.27 5.03-6.67 8-5 1.93-3.03 3.87-6.84 6-10-.08-4.15-5.96-7.56-7.75-11.25-1.78-3.7-5.64-7.44-8.25-10.75-5.63-8.59-12.25-16.46-18-25-1.74 3.65-2.11 8.76-3 13Z"/><path fill="none" stroke="#267bf8" stroke-width=".3" d="M643 396c2.85 4.11 6.11 8.12 9 12-1.32-4.71-3.91-11.53-8-17 4.72-4.14 9.59-9.54 11-16 7.53-1.45 13.64-5.62 21-9 4.68 4.21 7.96 14 14 14-6.37-8.56-12.64-17.53-19-26-5.77-1.43-10.3-11.07-16-15 1.28 3.46-2.68 3.95-2 7-5.84-1.82-8.88 5.74-15 5 2.13 8.72-6.15 2.36-6.66 13.32S639.75 386.4 643 396Z"/><path fill="none" stroke="#2bbaed" stroke-width=".3" d="M612 353c3.21 4.4 6.65 9.54 10 14a156 156 0 0 0-11-19c.7 1.68.69 4.16 1 5Z"/><path fill="none" stroke="#126cef" stroke-width=".3" d="M576 350a69 69 0 0 1-3 10c-2.04 11.16-6.94 24-13.25 34.75s-18.23 15.62-28.43 22.57S502.2 426.04 490 425s-25.09-4.93-35.07-11.93-22.52-11.6-30.68-20.32S411.33 370.59 402 364c-2.14 2.02-4.41-.86-7 0 .3 1.57-.25 3.61-2 4v1c-2.86 2.96-11.07.79-15 2-.59 2.84 1.22 6.98-1 9v11c4.64 1.85 19.7-3.34 22 2s.43 17.49-3 20c26.68 33.93 72.68 50.16 114.78 45.78s74.01-30 96.22-64.78c-2.97-1.67-4.39 5.27-8 5 3.24-6.75-5.03-11.58-7.07-16.93s-7.44-11.97-9.94-16.06c-2.5-4.1-4.67-17.27-5.99-16.01Z"/><path fill="none" stroke="#006671" stroke-width=".3" d="M327 372c-.04 0 0-1 0-1-1.79 0-5.39.71-7 0-5.14-2.26-.3-14.94-2-20h15c2.08.08 3.55-.4 5 1 .26.25 1 0 1 0-.95-4.44-11.62-1.6-17-2-5.37-.4-5.2 7.13-5 14s1.91 8 10 8Z"/><path fill="none" stroke="#002e6a" stroke-width=".3" d="M376 368v1c4.73-2.4 10.83-.27 16-1v-18c-6.83 2.41-5.12 15.44-15 14 .9 1.42-.89 3.25-1 4Z"/><path fill="none" stroke="#0a4e9a" stroke-width=".3" d="M376 369c0 3.99-2.12 19.82 1 22v-22h16v-16c0-.39.26-2.76 0-3 0 0-.51-.06-1 0v18c-5.17.73-11.27-1.4-16 1Z"/><path fill="none" stroke="#1ba5f0" stroke-width=".3" d="M393 353c2.45-3.47 18.89-2.13 19.97 3.03 1.09 5.16 4.85 13 8.28 17.72 3.44 4.71 6.16 11.12 10.5 15.5 4.35 4.37 8.31 7.81 13.33 11.67 5.03 3.85 10.56 6.7 16.6 9.4 6.03 2.7 12.6 4.78 19.39 6.61 6.8 1.82 17.73.75 24.93 1.07s13.23-3.22 19.08-5.92c5.84-2.71 12.16-4.86 17.15-8.85s9.57-7.67 14.02-11.98 6.93-11.08 8.75-15.25c-4.21 6.39-9.77 11.4-15 17-.51.55-.64 1.41-1 2-7.25 11.91-21.07 14.16-33.01 18.99-11.94 4.84-32.81 3.31-41.99-1.99a125 125 0 0 1-9-3c-24.46-10.15-45.73-32.65-50-59-7.28-.53-14.74.7-22 0 .26.24 0 2.61 0 3Z"/><path fill="none" stroke="#01dcf3" stroke-width=".3" d="M320 371c-3.11-2.01-.6-12.37-1-16s11.7-3.87 14-4h-15c1.7 5.06-3.14 17.74 2 20Z"/><path fill="none" stroke="#01bcfa" stroke-width=".3" d="M320 371c1.61.71 5.21 0 7 0 1.97 0 4.04.18 6 0-1.7-.04-4.79-2.07-7-2 2.93-5.79 4.75-13.88 11-16 .62 3.5-1.27 8.32 1 11 .08-3.96-.36-8.06 0-12-1.45-1.4-2.92-.92-5-1-2.3.13-14.4.37-14 4s-2.11 13.99 1 16Z"/><path fill="none" stroke="#004f75" stroke-width=".3" d="M338 364c-.05 2.33.04 4.67 0 7h-5c-1.96.18-4.03 0-6 0 0 0-.04 1 0 1 14.25 0 13.2-6.58 12-20 0 0-.74.25-1 0-.36 3.94.08 8.04 0 12Z"/><path fill="none" stroke="#0e85f7" stroke-width=".3" d="M393 353v15c1.75-.39 2.3-2.43 2-4 2.59-.86 4.86 2.02 7 0 9.33 6.59 14.09 20.03 22.25 28.75s20.69 13.32 30.68 20.32S477.8 423.96 490 425s31.12-.72 41.32-7.68 22.12-11.82 28.43-22.57S570.96 371.16 573 360a79 79 0 0 1-8 16c-1.82 4.17-4.31 10.93-8.75 15.25-4.45 4.31-9.03 7.99-14.02 11.98s-11.31 6.14-17.15 8.85c-5.85 2.7-11.88 6.24-19.08 5.92s-18.13.75-24.93-1.07c-6.79-1.83-13.36-3.91-19.39-6.61s-11.57-5.55-16.6-9.4c-5.02-3.86-8.98-7.3-13.33-11.67s-7.06-10.79-10.5-15.5c-3.43-4.72-7.19-12.56-8.28-17.72s-17.52-6.5-19.97-3.03Z"/><path fill="none" stroke="#00a2f9" stroke-width=".3" d="M333 371h5c.04-2.33-.05-4.67 0-7-2.27-2.68-.38-7.5-1-11-6.25 2.12-8.07 10.21-11 16 2.21-.07 5.3 1.96 7 2Z"/><path fill="none" stroke="#3566f8" stroke-width=".3" d="M652 408c4.82 6.49 9.18 13.39 14 20-.61-4.23 2.13-7.17-4.25-11.75s1.79-7.15 4.92-9.58c3.14-2.42 8.02-7.09 9.33-10.67 4.27-.21 10.73-5.21 14-9 2.76 1.14 4.52 1.31 7 3-2.39-3.21-4.67-6.86-7-10-6.04 0-9.32-9.79-14-14-7.36 3.38-13.47 7.55-21 9-1.41 6.46-6.28 11.86-11 16 4.09 5.47 6.68 12.29 8 17Z"/><path fill="none" stroke="#0393f8" stroke-width=".3" d="M377 380c2.22-2.02.41-6.16 1-9 3.93-1.21 12.14.96 15-2h-16z"/><path fill="none" stroke="#0a052a" stroke-width=".3" d="M710 406c1.21 1.63 2.18 4.9 4 6 9.51 3.87 24.99-2.15 35 0s21.96-1.41 30.93-3.07 15.89-7.2 22.99-12.01c7.09-4.82 12.12-9.98 17.08-16.92-.02-2.68-9.8 3.92-12.25 6.75s-9.55 5.62-13.72 8.28-10.47 4.58-16.01 5.99c-5.53 1.42-12.36 2.12-18 3-5.63.89-12.76 1.07-18.02 1.98s-16.66-1.63-20.98 1.02c-4.31 2.65-11.61-4.85-11.02-1.02Z"/><path fill="none" stroke="#4852f7" stroke-width=".3" d="M666 428c4.67 6.4 9.24 12.6 14 19 3.91-6.82-8.88-13.68-11-21 4.51.75 9.28.03 10.89-3.1 1.62-3.14 8.18-2.56 8.11-7.9 7.41-1.18 13.64-8.39 15-14 4.55 3.41 4.58 13.04 11 14s17.97.11 24-1c-7.42-1.09-17.73 1.8-24-2-1.82-1.1-2.79-4.37-4-6-3.93-5.28-9.02-10.65-13-16-2.48-1.69-4.24-1.86-7-3-3.27 3.79-9.73 8.79-14 9-1.31 3.58-6.19 8.25-9.33 10.67-3.13 2.43-11.3 5-4.92 9.58s3.64 7.52 4.25 11.75Z"/><path fill="none" stroke="#b21fea" stroke-width=".3" d="M715 458h50c40.05 0 81.42-25.86 101-61 1.7-3.05 2.41-6.89 4-10-10.8 14.53-19.31 29.11-34.75 41.25S804.73 447.95 785 453c-19.72 5.05-49.82 1.1-70 5Z"/><path fill="none" stroke="#1757a3" stroke-width=".3" d="M345 408c0 .04 1 0 1 0 .45-4.96-.34-10.03 0-15h18c-5.34-2.32-12.84-.34-19-1 .36 5.3-.48 10.71 0 16Z"/><path fill="none" stroke="#1c6af9" stroke-width=".3" d="M346 408c6.31 4.37 11.84-14.03 15-15h-15c-.34 4.97.45 10.04 0 15Z"/><path fill="none" stroke="#3149ed" stroke-width=".3" d="M346 408s-1 .04-1 0v4h19c-2.23-4.77 2.98-14.75 0-19h-3c-3.16.97-8.69 19.37-15 15Z"/><path fill="none" stroke="#021027" stroke-width=".3" d="M465 409a125 125 0 0 0 9 3c24 6.6 56.69-.21 75-17 .36-.59.49-1.45 1-2-7.5 4.79-15.94 6.29-23.33 9.67s-5.33-2.96-12.6 2.4c-7.26 5.37-18.95 1.48-26.39 2.61S471.64 409.71 465 409Z"/><path fill="none" stroke="#3ac5eb" stroke-width=".3" d="M474 412c9.18 5.3 30.05 6.83 41.99 1.99S541.75 406.91 549 395c-18.31 16.79-51 23.6-75 17Z"/><path fill="none" stroke="#3f1371" stroke-width=".3" d="M765 458h-50c-7.43 0-20.1 2.52-27 0 9.76 5.38 27.48-.67 39 1s27.03.06 38-1Z"/><path fill="none" stroke="#f2f2f2" stroke-width=".3" d="M174 517c-.63 9.26-.84 19.75 0 29 1.75 8.44 5.84 13.5 15 14 11.37.62 23.64.77 35 0 20.65-1.41 12.21-20.07 15-36s-14.17-25.26-29-22-34.59-5.76-36 15m49-6c9.95 2.31 4.45 15.25 6 23s-.73 18.99-11.01 17.99-18.04 1.21-28.01-.97-5.9-14-6.98-22.02.58-19.88 11-18 18.98-2.33 29 0Z"/><path fill="none" stroke="#f4f4f4" stroke-width=".3" d="M270 541c1.91-2.73 8.58-.52 12-1s10.15-.33 13 1c6.95 3.25 9.64 13.19 15 18 3.43 2.19 8.14.42 12 1-.3-1.25-1.83-1.71-2-3-4.38-5.65-9.17-10.96-13-17 7.46 1.15 12.44-4.69 14-11 .56-4.51.56-10.49 0-15-8.97-22.02-40.9-8.06-60-12v58h9c2.23-4.77-2.98-14.75 0-19m0-9v-21c12.41 4.12 40.98-9.53 42 10s-29.45 7.95-42 11Z"/><path fill="none" stroke="#f2f2f3" stroke-width=".3" d="M345 560h10v-58h-10c.52 6.17-.69 14 0 20s-1.38 13.56 0 19-3 14.71 0 19Z"/><path fill="none" stroke="#f3f3f3" stroke-width=".3" d="M392 560c10.98.75 23.02.75 34 0 16.72-.24 14.42-20.02 14-32-6.41-.3-12.57.39-19 0s-13.8-.94-11 8c6.18 1.74 19.64-4.03 21 4s-4.48 12.22-12 12-16.81.35-24.33-.67-9.12-9.52-7.67-16.33-3.38-17.17 2.78-22.22 14.67.61 22.22-1.78 13.64 2.04 19 5c2.35.86 5.57-.64 8 0v-3c-1.35-11.7-16.29-11.92-26-11s-23.36-3.23-31.25 4.75c-7.88 7.99-3.44 21.91-4.75 32.25s4.2 20.27 15 21Z"/><path fill="none" stroke="#f5f5f5" stroke-width=".3" d="M464 560c4.25 2.98 13.64-1.39 19 0s13.17-.72 19 0 13.05-.54 19 0v-8c-7.1-1.17-18.31 1.56-25 0s-18.44 3.56-23-1c-1.77-1.77-2.15-14.49 0-16 7.84-.3 17.33.41 25 0s20.02 3.48 17-8c-6.29-.97-16.05 1.3-22 0s-15.94 3.06-20-1c-1.73-1.73-2.12-13.52 0-15h48v-9h-58c.39 6.25-.52 13.89 0 20s-.99 14.4 0 20-2.73 14.27 1 18Z"/><path fill="none" stroke="#f0f0f0" stroke-width=".3" d="M543 560c1.26.88 6.39 0 8 0-.5-5.55.25-17.01 0-22s-.71-20.2 2-19c4.55 9.68 10.51 11.49 15.25 21.75s13.46 9.51 17.83-.67c4.38-10.18 10.64-11.47 14.92-21.08 2.98 5.22-.54 15.21 1 21s-3.09 15.91 1 20c2.01 1.41 6.74-1.06 9 0v-58c-11.37-3.4-14.74 9.37-20.25 15.75S582.19 532.16 576 537c-4.29-7.13-9.64-13.87-14.25-20.75S551.92 499.45 542 502c.39 6.25-.52 13.89 0 20s-.99 14.4 0 20-2.73 14.27 1 18Z"/><path fill="none" stroke="#01baf7" stroke-width=".3" d="M662 534c.31-1.9 2.52-4.49 2-7 2.4-.05 4.04 1.97 6 3 2.53-4.37-3.93-16.77 1.26-19.74 5.19-2.98 16.01 1.69 21.74-.26.28-8.37 10.55-4.58 15-7-14.85-2.26-30.73-.39-46-1z"/><path fill="none" stroke="#0392ee" stroke-width=".3" d="M742 544c.63-2.44 4.72-7.5 8-7 .11 1-.47 2.73 1 3v-38h-9z"/><path fill="none" stroke="#043462" stroke-width=".3" d="M751 540v20h-9c3.44 4.91 12.15-.48 10-6s1.31-12.64 0-18 1.34-13.23 0-18 2.81-13.33-1-16z"/><path fill="none" stroke="#0f7bed" stroke-width=".3" d="M774 515c-.92 7.41 0 15.53 0 23 .81-2.42 4.44-4.22 7-4 1.3 3.4.09 8.15 2 11 1.61-8.26-5.01-32.76 7-34s27.98-3.21 34 6c2.33-1.61 5.28-.83 8-1 .07-16.13-16.88-13.76-29-14s-25.55-.92-29 13Z"/><path fill="none" stroke="#19328d" stroke-width=".3" d="M856 560v-58c-3.41 2.39-.48 14.5-1 19s-.54 15.52 0 20-2.44 16.59 1 19Z"/><path fill="none" stroke="#2f50ec" stroke-width=".3" d="M856 560h9v-58c-2.26 1.06-6.99-1.41-9 0z"/><path fill="none" stroke="#3d49f0" stroke-width=".3" d="M906 560h9c.67-16.17-1.33-33.66 1-49 5.14-3.6 17.86 3.6 23 0v-9h-56v9h23c.43 5.23-.58 11.92 0 17s-1.17 11.4 0 16-2.53 12.38 0 16Z"/><path fill="none" stroke="#1b1c68" stroke-width=".3" d="M939 511c1.68-1.18 1.72-7.8 0-9z"/><path fill="none" stroke="#602eee" stroke-width=".3" d="M942 560c2.65-.82 6.47 1.09 9 0 2.89-5.51 7.04-15.91 15-13s21.13-4.02 27.22.78 3.14 17.37 15.78 12.22c-5.86-10.32-10.15-22.81-16.22-32.78-6.07-9.96-7.63-28.09-22.78-25.22-1.15 5.07-5.21 10.24-7.08 14.92-1.86 4.69-5.28 9.64-7 14-1.71 4.37-6.27 10.9-7.15 14.85S940.11 556.91 942 560m34-48c3.52 9.2 9.41 17.54 12 27h-26c4.58-8.77 7.81-19.17 14-27Z"/><path fill="none" stroke="#7f1ef3" stroke-width=".3" d="M1035 502h-9v58c8.35-.47 18.86.63 27 0s21.86 4.07 19-8h-37z"/><path fill="none" stroke="#01a6f1" stroke-width=".3" d="M662 534c0 6.65-2.65 20.03 0 26 .08.19 1.5 0 2 0 .6-5.14-1.83-11.71 1-17 2.64-1.15 3.76 3.03 6 1 0-4.62-.68-12.73 0-17s-2.29-13.7 1-16c3.5-2.45 10.47 1.07 15 0s11.02.59 16 0 7.05 4.16 8 8c1.44 5.83 1.26 13.44 1 20 1-6.87-.38-16.26 7-20 .66 6.16-1.32 13.66 1 19 0-6.63.36-13.38 0-20-.42-7.72-4.51-12.97-12-15-4.45 2.42-14.72-1.37-15 7-5.73 1.95-16.55-2.72-21.74.26-5.19 2.97 1.27 15.37-1.26 19.74-1.96-1.03-3.6-3.05-6-3 .52 2.51-1.69 5.1-2 7Z"/><path fill="none" stroke="#02050f" stroke-width=".3" d="M223 511c-10.02-2.33-18.58 1.88-29 0s-12.08 9.98-11 18-3 19.85 6.98 22.02c9.97 2.18 17.73-.03 28.01.97S230.55 541.75 229 534s3.95-20.69-6-23Z"/><path fill="none" stroke="#02050e" stroke-width=".3" d="M270 532c12.55-3.05 43.02 8.53 42-11s-29.59-5.88-42-10z"/><path fill="none" stroke="#818483" stroke-width=".3" d="M473 526c-2.35-3.36 1.76-11.23 0-15-2.12 1.48-1.73 13.27 0 15Z"/><path fill="none" stroke="#001c2c" stroke-width=".3" d="M671 544c0 2.26-.3 4.76 0 7 .01.07 1 0 1 0 1.2-13.23-.9-26.75 0-40-3.29 2.3-.32 11.73-1 16s0 12.38 0 17Z"/><path fill="none" stroke="#00030e" stroke-width=".3" d="M672 551c10.18 0 21.99 1.69 32 0 4.5-1.37 5.57-2.57 7-7 1.22-7.21.9-17.73 0-25-.95-3.84-3.02-8.59-8-8s-11.47-1.07-16 0-11.5-2.45-15 0c-.9 13.25 1.2 26.77 0 40Z"/><path fill="none" stroke="#231d75" stroke-width=".3" d="M906 560c2.35 2.25 6.83.4 10 1v-50c-2.33 15.34-.33 32.83-1 49z"/><path fill="none" stroke="#020314" stroke-width=".3" d="M976 512c-6.19 7.83-9.42 18.23-14 27h26c-2.59-9.46-8.48-17.8-12-27Z"/><path fill="none" stroke="#6a6b6d" stroke-width=".3" d="M431 516c4.35 2.4 8.52 1.5 8-3v3c-2.43-.64-5.65.86-8 0Z"/><path fill="none" stroke="#75777a" stroke-width=".3" d="M321 529a32.5 32.5 0 0 0 0-15c.56 4.51.56 10.49 0 15Z"/><path fill="none" stroke="#01366c" stroke-width=".3" d="M774 547c-.27-2.94 0-6.04 0-9 0-7.47-.92-15.59 0-23-2.21 8.91-1.87 22.99 0 32Z"/><path fill="none" stroke="#656366" stroke-width=".3" d="M174 546c-.84-9.25-.63-19.74 0-29-1.53 8.54-1.78 20.4 0 29Z"/><path fill="none" stroke="#888b8b" stroke-width=".3" d="M551 560h1c1.22-13.46-1.74-28.28 1-41-2.71-1.2-2.25 14.01-2 19s-.5 16.45 0 22Z"/><path fill="none" stroke="#004d7c" stroke-width=".3" d="M720 538c0 2.63.24 5.38 0 8 1.73-8.33 1.37-19.59 0-28 .36 6.62 0 13.37 0 20Z"/><path fill="none" stroke="#015c89" stroke-width=".3" d="M711 544c.5-1.56.92-2.91 1-5 .26-6.56.44-14.17-1-20 .9 7.27 1.22 17.79 0 25Z"/><path fill="none" stroke="#0390f6" stroke-width=".3" d="M712 539c-.08 2.09-.5 3.44-1 5-1.43 4.43-2.5 5.63-7 7-3.96 1.2-11.44 1.82-16 1s-13.87 2.25-17-1c-.3-2.24 0-4.74 0-7-2.24 2.03-3.36-2.15-6-1-2.83 5.29-.4 11.86-1 17 13.23 0 26.81.9 40 0 9.47-.64 14.14-5.01 16-14 .24-2.62 0-5.37 0-8-2.32-5.34-.34-12.84-1-19-7.38 3.74-6 13.13-7 20Z"/><path fill="none" stroke="#2662f2" stroke-width=".3" d="M783 545c-1.91-2.85-.7-7.6-2-11-2.56-.22-6.19 1.58-7 4 0 2.96-.27 6.06 0 9 1.56 7.53 5.86 12.56 14 13 10.12.55 20.88.55 31 0 16.72-.05 14.41-20.12 14-32-6.39-.37-12.59.5-19 0s-12.5-.4-10 8h20c4.17 11.84-6.27 18-16 16s-21.42 4.33-25-7Z"/><path fill="none" stroke="#7b7e7d" stroke-width=".3" d="M473 551c-2.51-3.58 1.88-11.98 0-16-2.15 1.51-1.77 14.23 0 16Z"/><path fill="none" stroke="#0c79f1" stroke-width=".3" d="M742 544c0 3.22-1.76 13.48 0 16h9v-20c-1.47-.27-.89-2-1-3-3.28-.5-7.37 4.56-8 7Z"/><path fill="none" stroke="#918e8f" stroke-width=".3" d="M270 541c7.82 1.72 17.35-2.29 25 0-2.85-1.33-9.58-1.48-13-1s-10.09-1.73-12 1Z"/><path fill="none" stroke="#043a56" stroke-width=".3" d="M704 551c-10.01 1.69-21.82 0-32 0 0 0-.99.07-1 0 3.13 3.25 12.44.18 17 1s12.04.2 16-1Z"/><path fill="none" stroke="#585b5f" stroke-width=".3" d="M310 559c2.53 3.61 9.33 2.17 13 1-.14-1.6-2.16-2.02-3-3 .17 1.29 1.7 1.75 2 3-3.86-.58-8.57 1.19-12-1Z"/><path fill="none" stroke="#77787c" stroke-width=".3" d="M224 560c-11.36.77-23.63.62-35 0 10.39 1.69 24.55 1.87 35 0Z"/><path fill="none" stroke="#5b5b60" stroke-width=".3" d="M355 560h-10c1.2 1.72 8.77 1.76 10 0Z"/><path fill="none" stroke="#75767a" stroke-width=".3" d="M426 560c-10.98.75-23.02.75-34 0 10.02 1.8 23.91 1.81 34 0Z"/><path fill="none" stroke="#646669" stroke-width=".3" d="M521 560c-5.95-.54-13.17.72-19 0s-13.64 1.39-19 0-14.75 2.98-19 0c3.3 3.3 14.1.49 19 1s15.35.47 20 0 15.61 2.42 18-1Z"/><path fill="none" stroke="#57595d" stroke-width=".3" d="M552 560h-1c-1.61 0-6.74.88-8 0 1.62 1.62 7.35 1.71 9 0Z"/><path fill="none" stroke="#5f5f64" stroke-width=".3" d="M612 560c-2.26-1.06-6.99 1.41-9 0 1.43 1.43 7.65 1.93 9 0Z"/><path fill="none" stroke="#023967" stroke-width=".3" d="M704 560c-13.19.9-26.77 0-40 0-.5 0-1.92.19-2 0 .86 2.97 10.7.2 14 1s11.1-.61 15 0 9.66-.4 13-1Z"/><path fill="none" stroke="#132a74" stroke-width=".3" d="M819 560c-10.12.55-20.88.55-31 0a106 106 0 0 0 31 0Z"/><path fill="none" stroke="#280d65" stroke-width=".3" d="M951 560c-2.53 1.09-6.35-.82-9 0 1.37 2.24 7.36 1.05 9 0Z"/><path fill="none" stroke="#b6b7bc" stroke-width=".3" d="M362 593c-5.42-7.07-15.87.17-14.78 7.78 1.1 7.6 11.53 11.07 15.78 4.22-4.45.49-12.48 3.06-13-5s7.42-6.58 12-7Z"/><path fill="none" stroke="#b4b5b9" stroke-width=".3" d="M412 590c-12.06-2.02-15.29 16.17-3.67 18.67S423.07 591.85 412 590m1 3c7.91 2.66 1.02 17.68-6.67 12.67S405.26 590.4 413 593Z"/><path fill="none" stroke="#43454c" stroke-width=".3" d="M441 608c-3.31.3-6.69-.22-10 0 .65-5.5-1.32-12.33 1-17 .26-.25 1 0 1 0-3.27-3.37-2.87 9.39-3 13s6.76 8.38 11 4Z"/><path fill="none" stroke="#b7b9be" stroke-width=".3" d="M461 590c-11.8-1.97-15.22 15.95-3.67 18.67 11.55 2.71 14.8-16.81 3.67-18.67m2 3c7.18 3.02 1 17.37-6.67 12.67S454.94 589.61 463 593Z"/><path fill="none" stroke="#b7b8bc" stroke-width=".3" d="M494 593c-5.11-6.14-15.88-1.15-14.99 6.99.88 8.14 9.34 11.11 15.99 7.01.69-4.78.21-9.98-6-8 .8 2.72 4.57 2.79 3 7-6.39 1.16-11.72-1.73-10.32-8.32s8.22-3.95 12.32-4.68Z"/><path fill="none" stroke="#505355" stroke-width=".3" d="M508 591c2.26 4.75.39 11.49 1 17 2.93-.96.79-18.79-1-17Z"/><path fill="none" stroke="#57585d" stroke-width=".3" d="M623 608v-17h7c-3.79-1.54-9.29-.23-8 4s-2.49 11.86 1 13Z"/><path fill="none" stroke="#babcc1" stroke-width=".3" d="M679 593c-1.79-8.39-17.69 2.36-9.08 6.08 8.62 3.71 7.21 7.59-1.92 6.92 2.68 3.82 10.09 4.08 10.99-1.99s-9.8-4.69-7.99-11.01c2.79-.76 5.77 1.28 8 0Z"/><path fill="none" stroke="#5b5f63" stroke-width=".3" d="M727 591c2.26 4.75.38 11.49 1 17 3.1-1.78.43-18.43-1-17Z"/><path fill="none" stroke="#b1b3b6" stroke-width=".3" d="M754 593c-4.33-6.39-12.66-1.4-14.22 4.78s5.58 10.6 9.22 13.22c-4.72 1.41-1.57 4.61 2 2-4.08-5.44 1.55-4 4-8-4.34.64-12.42 2.87-12.99-4.99s7.65-6.96 11.99-7.01Z"/><path fill="none" stroke="#53545a" stroke-width=".3" d="M805 608v-17h8c-3.48-1.28-10.62-1.24-9 4s-2.97 10.22 1 13Z"/><path fill="none" stroke="#333439" stroke-width=".3" d="M833 590c-3.43-1.67-5.08 17.51-1.7 18.64s4.5-17.28 1.7-18.64m-1 18c-1.62-4.59-1.7-12.48 0-17 1.62 4.59 1.7 12.48 0 17Z"/><path fill="none" stroke="#bababe" stroke-width=".3" d="M860 593c-6.67-6.82-20.85 1-14.75 11.75s24.83-4.09 8.75-5.75c.79 3.06 6.03 1.9 4 7-6.05 1.85-12.94-2.22-10.92-8.92s8.9-2.46 12.92-4.08Z"/><path fill="none" stroke="#c9cacd" stroke-width=".3" d="M314 592c-3.53-1.71-10.4-1.59-14 0 9.63-.69 4.05 10.5 7 16 3.01-5.32-2.68-16.79 7-16Z"/><path fill="none" stroke="#c4c5ca" stroke-width=".3" d="M336 592c-2.68-2.27-7.5-.38-11-1v17c3.84-.57 8.91 1.19 12-1-2.93-1.84-6.66-.68-10-1-2.14-6.65 4.61-5.53 8-7-2.86-2.21-10.32.86-8-6 2.85-.5 6.9 1.08 9-1Z"/><path fill="none" stroke="#c1c2c7" stroke-width=".3" d="M376 608c.84-3.18-1.98-13.61 2-12 3.73 3.78 4.89 11.65 11 12-.62-5.51 1.26-12.25-1-17-2.86 3.2.83 9.73-2 13-4.12-4.08-5.45-13.09-12-13 .2 2.33-1.15 18.03 2 17Z"/><path fill="none" stroke="#dfdee0" stroke-width=".3" d="M441 608s.25-.74 0-1c-2.98-.27-6.02.2-9 0v-16c-2.32 4.67-.35 11.5-1 17 3.31-.22 6.69.3 10 0Z"/><path fill="none" stroke="#b3b5b6" stroke-width=".3" d="M441 607c-1.7-2.19-5.48-.44-8-1-.33-4.97.44-10.04 0-15 0 0-.74-.25-1 0v16c2.98.2 6.02-.27 9 0Z"/><path fill="none" stroke="#cdcdd0" stroke-width=".3" d="M509 608c-.61-5.51 1.26-12.25-1-17-1.73 1.73-1.8 17.91 1 17Z"/><path fill="none" stroke="#babcc1" stroke-width=".3" d="M530 591c-6.56 1.71-6.12 11.84-10 17 4.14-.85 3.97-4.37 9-4s3.64 3.29 8 4a285 285 0 0 1-7-17m1 11c-6.83 1.84-4.62-4.43-3-8 2 1.94 2.79 5.15 3 8Z"/><path fill="none" stroke="#c5c7cd" stroke-width=".3" d="M573 592c-2.68-2.27-7.5-.38-11-1v17c3.51-.55 8.24 1.16 11-1-3.69-2.04-11.64.81-9-7 2.52-.47 6.23 1.03 8-1-2.86-2.21-10.32.86-8-6 2.85-.5 6.9 1.08 9-1Z"/><path fill="none" stroke="#bdbfc5" stroke-width=".3" d="M601 608c-1.15-8.83 5.69-4.2 9.67-9.33S604.52 588.13 600 591c.61 5.51-1.26 12.25 1 17m1-15c15.05-2.42-1.88 14.15 0 0Z"/><path fill="none" stroke="#c0c1c6" stroke-width=".3" d="M623 608c3.62.04 1.39-4.78 2-7 5.56-1.15 4.16 8.33 10 7-1.64-2.7-3.72-5.07-5-8 5.94-1.3 4.53-7.16 0-9h-7v17m2-15c15.05-2.42-1.88 14.15 0 0Z"/><path fill="none" stroke="#cbcdd2" stroke-width=".3" d="M657 592c-2.68-2.27-7.5-.38-11-1v17c3.51-.55 8.24 1.16 11-1-3.69-2.04-11.64.81-9-7 2.52-.47 6.23 1.03 8-1-2.86-2.21-10.32.86-8-6 2.85-.51 6.9 1.08 9-1Z"/><path fill="none" stroke="#c5c7cb" stroke-width=".3" d="M702 592c-2.68-2.27-7.5-.38-11-1v17c3.51-.55 8.24 1.16 11-1-3.69-2.04-11.64.81-9-7 2.52-.47 6.23 1.03 8-1-2.86-2.21-10.32.86-8-6 2.85-.5 6.9 1.08 9-1Z"/><path fill="none" stroke="#bebfc3" stroke-width=".3" d="M728 608c-.62-5.51 1.26-12.25-1-17-2.29 3.34-.36 8.83-1 13-4.28-3.65-5.78-12.25-12-13 .62 5.51-1.26 12.25 1 17 2.86-3.2-.83-9.73 2-13 2.09 1.82 7.48 15.02 11 13Z"/><path fill="none" stroke="#bbbcc1" stroke-width=".3" d="M774 591c-6.91 1.35-6.89 11.64-10 17 3.95-5.34 11.51-5.08 16 0-1.46-5.85-5.14-11.01-6-17m-1 4c-.63 2.72 2.06 4.41 2 7-6.92 2.9-6.81-5.62-2-7Z"/><path fill="none" stroke="#b8bbc1" stroke-width=".3" d="M805 608c10.03 7.02 22.24-11.74 8-17h-8v17m2-2v-13c12.94-4.3 12.88 17.06 0 13Z"/><path fill="none" stroke="#c5c8cd" stroke-width=".3" d="M832 608c1.7-4.52 1.62-12.41 0-17-1.7 4.52-1.62 12.41 0 17Z"/><path fill="none" stroke="#999a9f" stroke-width=".3" d="M873 608a100 100 0 0 1 0-17c-1.99 1.93-2.05 15.02 0 17Z"/><path fill="none" stroke="#e3e4e9" stroke-width=".3" d="M873 608s.74.25 1 0a100 100 0 0 0 0-17s-.74-.25-1 0a100 100 0 0 0 0 17Z"/><path fill="none" stroke="#6b6f71" stroke-width=".3" d="M874 608c1.99-1.93 2.05-15.01 0-17a100 100 0 0 1 0 17Z"/><path fill="none" stroke="#b9babe" stroke-width=".3" d="M890 593c3.07 3.33-.22 10.73 1 15 2.91-1.71 2.7-5.55 2-10s3.04-4.79 5-7h-13c-.95 3.57 4.06.98 5 2Z"/><path fill="none" stroke="#bcbec3" stroke-width=".3" d="M922 608c-3.79-5.18-3.32-15.37-10-17-1.57 5.95-4.39 11.41-7 17 4.23-.91 3.85-4.29 9-4s3.94 3.07 8 4m-8-14c.13 2.95 2.88 5.02 3 8-7.06 2.43-6.65-4.76-3-8Z"/><path fill="none" stroke="#acaeb3" stroke-width=".3" d="M935 591c-6.33 1.15-1.48 11.87-3 17 3.51-.55 8.24 1.16 11-1-1.7-2.19-5.48-.44-8-1z"/><path fill="none" stroke="#0a0c14" stroke-width=".3" d="M413 593c-7.74-2.6-14.36 7.66-6.67 12.67S420.91 595.66 413 593Z"/><path fill="none" stroke="#070a13" stroke-width=".3" d="M463 593c-8.06-3.39-14.34 7.97-6.67 12.67s13.85-9.65 6.67-12.67Z"/><path fill="none" stroke="#121419" stroke-width=".3" d="M602 593c-1.88 14.15 15.05-2.42 0 0Z"/><path fill="none" stroke="#1b1b1e" stroke-width=".3" d="M625 593c-1.88 14.15 15.05-2.42 0 0Z"/><path fill="none" stroke="#050812" stroke-width=".3" d="M807 606c12.88 4.06 12.94-17.3 0-13z"/><path fill="none" stroke="#616267" stroke-width=".3" d="M891 608c-1.22-4.27 2.07-11.67-1-15 1.35 2.56-2.23 13.94 1 15Z"/><path fill="none" stroke="#202125" stroke-width=".3" d="M531 602c-.21-2.85-1-6.06-3-8-1.62 3.57-3.83 9.84 3 8Z"/><path fill="none" stroke="#242529" stroke-width=".3" d="M914 594c-3.65 3.24-4.06 10.43 3 8-.12-2.98-2.87-5.05-3-8Z"/><path fill="none" stroke="#6b6f77" stroke-width=".3" d="M376 608c3.41-1.12-1.23-10.36 2-12-3.98-1.61-1.16 8.82-2 12Z"/><path fill="none" stroke="#23252b" stroke-width=".3" d="M773 595c-4.81 1.38-4.92 9.9 2 7 .06-2.59-2.63-4.28-2-7Z"/><path fill="none" stroke="#011832" stroke-width=".3" d="M213 601c-.81-.15-3.35-1.21-4-2h6c2.66-.11 5.34 0 8 0h1c.25-.25 0-1 0-1-7.06.1-14.93-.67-21 2 2.93 1.61 6.66 1 10 1Z"/><path fill="none" stroke="#053a48" stroke-width=".3" d="M224 599h32c-.25-.27 0-1 0-1h-32s.25.75 0 1Z"/><path fill="none" stroke="#021938" stroke-width=".3" d="M256 599h13c-.47 1.98-3.6-.11-4 2 2.36-.3 6.02 1.03 7-2-4.99-1.57-10.64-1-16-1 0 0-.25.73 0 1Z"/><path fill="none" stroke="#111040" stroke-width=".3" d="M981 601c-1.04-.16-4.11-1.18-5-2h54c-1.03 2.37-5.04-.46-6 2 4.88-.72 11.34 1.76 15-2-22.01-.96-46.75-2.94-68 1 2.94 1.61 6.66 1 10 1Z"/><path fill="none" stroke="#013769" stroke-width=".3" d="M213 601h10c-1.83-.18-6.24-1.89-8-2h-6c.65.79 3.19 1.85 4 2Z"/><path fill="none" stroke="#026399" stroke-width=".3" d="M223 601h9c-.04 0 0-1 0-1-3.1 0-6.64-.77-9-1-2.66 0-5.34-.11-8 0 1.76.11 6.17 1.82 8 2Z"/><path fill="none" stroke="#00bbda" stroke-width=".3" d="M232 600c6.66 0 13.34.13 20 0 2.41-.05 5.3-.84 7-1h-36c2.36.23 5.9 1 9 1Z"/><path fill="none" stroke="#004681" stroke-width=".3" d="M252 600v1c4.32 0 8.68.16 13 0 .4-2.11 3.53-.02 4-2h-10c-1.7.16-4.59.95-7 1Z"/><path fill="none" stroke="#2b2c93" stroke-width=".3" d="M981 601h43c.96-2.46 4.97.37 6-2h-17c-6.92.67-15.15.66-22 0h-15c.89.82 3.96 1.84 5 2Z"/><path fill="none" stroke="#585ddc" stroke-width=".3" d="M1013 599h-22c6.85.66 15.08.67 22 0Z"/><path fill="none" stroke="#017995" stroke-width=".3" d="M232 601h20v-1c-6.66.13-13.34 0-20 0 0 0-.04 1 0 1Z"/><path fill="none" stroke="#02bcda" stroke-width=".3" d="M535 648c3.44.89 7.51-.67 11 0 .09-1.39-4.19-.72-2-2 .16-7.37.5-15.41-8.92-12.92-9.43 2.48-5.45 12.68-.08 14.92m4-14c7.13 1.33 4.49 14.28-3 12s-3.56-13.22 3-12Z"/><path fill="none" stroke="#02b2ca" stroke-width=".3" d="M667 633c-3.52-4.39-14.3 4.79-6.68 7.68s4.39 5.91-2.32 5.32c8.77 9.34 13.92-7.91 2-9 .64-4.01 7.23.09 7-4Z"/><path fill="none" stroke="#019ec2" stroke-width=".3" d="M826 634c-3.15-2.68-9.54-2.39-9.97 2.97s10.04 3.14 7.97 9.03c-2.79.76-5.77-1.28-8 0 1.25 7.71 15.25-.43 9.74-4.74s-9.56-5.34.26-7.26Z"/><path fill="none" stroke="#03aace" stroke-width=".3" d="M871 635c-1.13-8.6-14.84 3.1-6.69 5.69s4.39 7.93-2.31 4.31c.36 8.39 14.72-.19 8.75-3.75-5.98-3.55-7.53-7.88.25-6.25Z"/><path fill="none" stroke="#01b2cf" stroke-width=".3" d="M374 648c-.5-7.83 5.61-3.49 9.22-8.78s-6.1-7.91-10.22-6.22c.6 4.84-1.24 10.91 1 15m7-10c-.56 2.75-4.07 1.82-6 2 .39-1.57-.94-4.22 1-5 1.92-1.12 6.15.11 5 3Z"/><path fill="none" stroke="#00aaca" stroke-width=".3" d="M402 633c-5.8 2.12-5.48 10.41-9 15 4.23-2.84 11.06-4.81 15 0-.92-5.34-3.8-10.05-6-15m1 9c-8.71.97.77-9.85 0 0Z"/><path fill="none" stroke="#01bcd6" stroke-width=".3" d="M428 641c7.72-4.69-.8-10.65-7-8 .6 4.84-1.24 10.91 1 15 1.08-9.56 4.66-3.36 9 0 0-2.7-3.25-4.17-3-7m-5-1c-1.31-11.32 12.2.7 0 0Z"/><path fill="none" stroke="#01b0d0" stroke-width=".3" d="M451 633c-5 2.27-6.2 10.03-8 15 3.68-4.2 10.18-3.64 14 0-.92-5.34-3.8-10.05-6-15m1 9c-8.71.97.77-9.84 0 0Z"/><path fill="none" stroke="#01b3cf" stroke-width=".3" d="M486 648c-.73-7.46 5.29-3.74 8.67-8.33s-5.81-9.05-9.67-6.67c.6 4.84-1.24 10.91 1 15m1-8c-1.31-11.32 12.2.7 0 0Z"/><path fill="none" stroke="#03c4da" stroke-width=".3" d="M510 635c1.41-2.45 5.68.54 7-2h-9v15c3.18-.53 7.57 1.13 10-1-1.7-2.19-5.48-.44-8-1-2.02-6.22 4.07-4.21 7-6-1.22-1.87-10.02.24-7-5Z"/><path fill="none" stroke="#017290" stroke-width=".3" d="M510 635c1.33.86 10.38-.36 7-2-1.32 2.54-5.59-.45-7 2Z"/><path fill="none" stroke="#00bcd3" stroke-width=".3" d="M561 644c-2.05-2.84-.53-7.43-1-11-3.61 3.05-3.67 14.65 4 15s7.1-9.88 5-15c-.03 3.04-1.61 19.85-8 11Z"/><path fill="none" stroke="#017c9b" stroke-width=".3" d="M561 644c-1.04-2.11 1.79-10.09-1-11 .47 3.57-1.05 8.16 1 11Z"/><path fill="none" stroke="#03bad4" stroke-width=".3" d="M584 648h10c-.18-3.81-5.52-1.26-8-2-2.02-6.22 4.07-4.21 7-6-2.06-2.36-8.93.87-7-5 2.52-.47 6.22 1.03 8-1-2.35-2.25-6.83-.39-10-1 1.76 3.77-2.35 11.64 0 15Z"/><path fill="none" stroke="#00c3e0" stroke-width=".3" d="M617 644c-3.6-3.36-4.08-11.02-10-11 .6 4.84-1.24 10.91 1 15 2.81-2.54-.77-8.39 2-11 3.2 3.57 4.92 10.45 10 11-.6-4.84 1.24-10.91-1-15-2.81 2.54.77 8.39-2 11Z"/><path fill="none" stroke="#01aec8" stroke-width=".3" d="M641 633c-5.9 1.21-6.09 10.29-9 15a11.9 11.9 0 0 1 15 0c-1.48-5.18-4.52-9.84-6-15m1 9c-5.88 1.43-4.58-2.43-3-6 1.98 1.31 1.75 4.1 3 6Z"/><path fill="none" stroke="#03bcd5" stroke-width=".3" d="M696 648c3.17-.6 7.65 1.25 10-1-1.97-1.97-5.09.4-7-1-1.54-1.12-.83-3.21-1-5 2.22-.61 7.04 1.62 7-2-3.14.02-8.58 1.01-7-4 2.52-.47 6.23 1.03 8-1-2.35-2.25-6.83-.39-10-1 1.76 3.77-2.35 11.64 0 15Z"/><path fill="none" stroke="#01b3d4" stroke-width=".3" d="M726 643c-2.06-3.45-1.38-11.13-7-10 .6 4.84-1.24 10.91 1 15 2.81-2.54-.77-8.39 2-11 1.38 3.68 2.82 7.31 4 11 3.83-1.43 4.14-7.51 6-11 2.81 2.54-.77 8.39 2 11 2.31-4.01.35-10.17 1-15-6.74-1.62-3.87 9.14-9 10Z"/><path fill="none" stroke="#018fbc" stroke-width=".3" d="M749 648c-.45-4.96.34-10.03 0-15-2.1 1.47-1.75 13.3 0 15Z"/><path fill="none" stroke="#02c2df" stroke-width=".3" d="M749 648s.84.23 1 0c-.35-9.43 3.51-3.51 8-8 3.72-5.35-4.87-9.89-9-7 .34 4.97-.45 10.04 0 15m6-13c4.02 2.54-1.13 6.75-4 5-3.47-2.11.18-7.41 4-5Z"/><path fill="none" stroke="#03b8d2" stroke-width=".3" d="M779 641c7.98-4.89-2.29-10.49-8-8 .6 4.84-1.24 10.91 1 15 .99-10.46 5.43-2.11 10 0-1.25-2.19-3.48-4.17-3-7m0-6c1.26 3.89-2.77 5.54-6 5-1.46-4.64 2.12-5.75 6-5Z"/><path fill="none" stroke="#03abc8" stroke-width=".3" d="M794 648c0 .05 1 0 1 0-.04-2.08-.77-5.76 1-7 1.79-1.25 5.99.94 8 0 1.2-3.66-5.82-1.14-7-2-1.54-1.12-.83-3.21-1-5 2.52-.56 6.3 1.19 8-1h-10c.34 4.97-.45 10.04 0 15Z"/><path fill="none" stroke="#026381" stroke-width=".3" d="M797 639v-4c1.33.86 10.38-.36 7-2-1.7 2.19-5.48.44-8 1 .17 1.79-.54 3.88 1 5Z"/><path fill="none" stroke="#01a6c9" stroke-width=".3" d="M851 648c-2.56-4.8-2.36-12.96-8-15-2.19 4.94-5.09 9.69-6 15 3.69-4.2 10.18-3.64 14 0m-6-11c1.32 3.72.64 5.99-4 5 1.44-1.63 1.18-5.19 4-5Z"/><path fill="none" stroke="#000b13" stroke-width=".3" d="M539 634c-6.56-1.22-10.49 9.72-3 12s10.13-10.67 3-12Z"/><path fill="none" stroke="#026b8a" stroke-width=".3" d="M751 640v-5h4c-3.82-2.41-7.47 2.89-4 5Z"/><path fill="none" stroke="#01435c" stroke-width=".3" d="M381 638c-.6 1.52-3.89.73-5 1v-4c-1.94.78-.61 3.43-1 5 1.93-.18 5.44.75 6-2Z"/><path fill="none" stroke="#00050d" stroke-width=".3" d="M381 638c1.15-2.89-3.08-4.12-5-3v4c1.11-.27 4.4.52 5-1Z"/><path fill="none" stroke="#01192d" stroke-width=".3" d="M423 640c12.2.7-1.31-11.32 0 0Z"/><path fill="none" stroke="#000c1a" stroke-width=".3" d="M487 640c12.2.7-1.31-11.32 0 0Z"/><path fill="none" stroke="#00101b" stroke-width=".3" d="M751 640c2.87 1.75 8.02-2.46 4-5h-4z"/><path fill="none" stroke="#031f36" stroke-width=".3" d="M779 635c-3.88-.75-7.46.36-6 5 3.23.54 7.26-1.11 6-5Z"/><path fill="none" stroke="#011c2e" stroke-width=".3" d="M642 642c-1.25-1.9-1.02-4.69-3-6-1.58 3.57-2.88 7.43 3 6Z"/><path fill="none" stroke="#001623" stroke-width=".3" d="M403 642c.77-9.85-8.71.97 0 0Z"/><path fill="none" stroke="#011627" stroke-width=".3" d="M452 642c.77-9.84-8.71.97 0 0Z"/><path fill="none" stroke="#010e1f" stroke-width=".3" d="M845 637c-2.82-.19-2.56 3.37-4 5 4.64.99 5.32-1.28 4-5Z"/><path fill="none" stroke="#034b5f" stroke-width=".3" d="M699 646v-4c1.76.91 10.07-.33 6-3 .04 3.62-4.78 1.39-7 2 .17 1.79-.54 3.88 1 5Z"/><path fill="none" stroke="#016d88" stroke-width=".3" d="M750 648c2.06-1.07.53-4.12 1-6 2.96.12 5.26.5 7-2-4.49 4.49-8.35-1.43-8 8Z"/><path fill="none" stroke="#00e2fa" stroke-width=".3" d="M795 648h9c-2.28-1.68-6.03.05-8-2-.51-1.49.39-3.47 0-5-1.77 1.24-1.04 4.92-1 7Z"/><path fill="none" stroke="#035368" stroke-width=".3" d="M796 646c.05.15 1 0 1 0v-4c1.64-.62 6.28 1.2 7-1-2.01.94-6.21-1.25-8 0 .39 1.53-.51 3.51 0 5Z"/><path fill="none" stroke="#015271" stroke-width=".3" d="M535 648c2.53 1.05 16.45 1.19 9-2-2.19 1.28 2.09.61 2 2-3.49-.67-7.56.89-11 0Z"/><path fill="none" stroke="#0390b4" stroke-width=".3" d="M804 648h1c-.19-3.28-5.51-2-8-2 0 0-.95.15-1 0 1.97 2.05 5.72.32 8 2Z"/><path fill="none" stroke="#004d6b" stroke-width=".3" d="M696 648c1.51 2.15 11.98.98 10-1-2.35 2.25-6.83.4-10 1Z"/><path fill="none" stroke="#01435c" stroke-width=".3" d="M594 648h-10c.97 1.39 9.34 2.02 10 0Z"/><path fill="none" stroke="#024562" stroke-width=".3" d="M805 648h-10s-1 .05-1 0c1.67 1.74 9.28 1.79 11 0Z"/><path fill="#011327" d="M410 235c21.83-17.27 47.52-28.34 75-31-2.33-2.15 8.74-.31 13-1s12.44 1.38 16 0c-7.09-1.69-14.46-1.98-21.33-3.67s-17-.22-23.66.68-13.65 3.29-19.79 5.21-11.1 5.58-16.52 8.48-10.26 5.9-14.45 10.55c-4.2 4.64-10.01 8.07-8.25 10.75"/><path fill="#02e4ec" d="M410 235c-.34.27-.63 1.6-1 2 17.18-11.11 35.73-21.64 57.67-26.33s49.99-2.39 71.4 4.26c21.41 6.64 35.91 21.06 52.93 32.07-28.51-28.51-64.22-47.04-106-43-27.48 2.66-53.17 13.73-75 31"/><path fill="#00dbfb" d="M409 237c-9.07 9.73-17.05 17.9-24 29 9.58-11.67 14.32-17.23 26.75-27.25S432.83 247.6 445 251c-.65 2.57.57 6.55 3 7-3.37 8.98-18.69 15.11-19 25 6.88-9.16 16.39-16.47 26-22 10.33-11.4 31.57-15.88 48-14s32.62 8.27 41 20c12.56 9.43 21.17 23.89 30 36 12.19 16.73 25.83 33.31 38 50-.31-.84-.3-3.32-1-5-2.83-6.74-8.46-13.3-13-19-8.41-10.54-15.69-22.37-24-33-11.43-14.62-27.01-28.86-36-43 5.01-.69 9.51-7.04 15-4-.29-2.53-1.05-4.03 1-6 2.49 3.71 8.09 2.35 10.25-.75 2.16-3.09 8.17-.47 7.75-5.25 17.38 3.76 27.6 28.15 40 37-6.78-9.11-12.89-18.89-21-27-17.02-11.01-31.52-25.43-52.93-32.07s-49.45-8.94-71.4-4.26c-21.94 4.69-40.49 15.22-57.67 26.33"/><path fill="#024a50" d="M639 256c-5.69-2.1-9.24-11.69-14.75-15.25s-9.75-10.63-15-15S598.67 214.92 594 210h123c-.25-.27 0-1 0-1H593c6.32 7.74 14.53 17.78 22.75 24.25S629.68 251.44 639 256"/><path fill="#14344a" d="M717 210h46c1 0 2-.03 3 0-15-2.69-33.09-1-49-1 0 0-.25.73 0 1"/><path fill="#29dff3" d="M639 256c8.81 3.25 20.5-1.41 30 0s20.14-.5 30 0 21.02 0 31 0h24c-6.39-.62-14.16-2.4-21-3-7.86-.69-16.1 0-24 0-11.36 0-25.96.95-37 0s-25.98 3.93-34-3c-12.32-10.64-24.8-23.28-34-36 22.52-1.96 45.87-.06 67-4h-77c4.67 4.92 10 11.38 15.25 15.75s9.49 11.44 15 15S633.31 253.9 639 256"/><path fill="#01cffc" d="M638 250c-3.35-3.52-8.07-7.47-6-13 4.83-1.81 7.43-7.15 9-12 6.62-.95 8.87-11.24 19-11s23.72-1.27 33-4h-22c-21.13 3.94-44.48 2.04-67 4 9.2 12.72 21.68 25.36 34 36"/><path fill="#09befc" d="M638 250c8.02 6.93 22.96 2.05 34 3s25.64 0 37 0c-12.34-1.19-27.99-2.35-40.22-4.78s-.75-8.62-5.78-13.22c8.74-4.84 7.2-19.65 19.01-20.99s26.35-2.84 37.99-4.01h-27c-9.28 2.73-22.87 4.24-33 4s-12.38 10.05-19 11c-1.57 4.85-4.17 10.19-9 12-2.07 5.53 2.65 9.48 6 13"/><path fill="#1cabfb" d="M709 253c7.9 0 16.14-.69 24 0-9.52-1.94-14.05-4.31-24.22-6.78-10.17-2.46-6.64-10.33-.53-15.97 6.12-5.63 4.35-13.49 11.05-15.95 6.7-2.47 20.63-3.62 27.7-4.3h-27a3217 3217 0 0 0-37.99 4.01C670.2 215.35 671.74 230.16 663 235c5.03 4.6-6.46 10.79 5.78 13.22s27.88 3.59 40.22 4.78"/><path fill="#3298fa" d="M733 253c6.84.6 14.61 2.38 21 3 3.6 0 9.3-1 12 1h1c2.05-2.42-7.35-5.01-11.07-4.93s-11.08-1.4-15.15-2.85c-4.07-1.44-8.79-4.33-12.78-6.22 5.26-9.59 14.41-17.9 16-29a149 149 0 0 1 19-4h-16c-7.07.68-21 1.83-27.7 4.3s-4.93 10.32-11.05 15.95c-6.11 5.64-9.64 13.51.53 15.97s14.7 4.84 24.22 6.78"/><path fill="#4184f9" d="M767 257c7.29-.49 16.64 2.86 23 6-2.77-3.01-6.74-6.85-13.01-6.99S771.82 245.3 766 244c1.95-2.29 3.63-4.03 2-7 6.01-5.76 7.7-6.61 10.78-15.22s13.53-3.27 20.22-4.78c-10.72-3.44-21.43-6.61-33-7-1-.03-2 0-3 0-6.05.85-12.86 2.27-19 4-1.59 11.1-10.74 19.41-16 29 3.99 1.89 8.71 4.78 12.78 6.22 4.07 1.45 11.42 2.94 15.15 2.85 3.72-.08 13.12 2.51 11.07 4.93"/><path fill="#4d72f9" d="M790 263a86 86 0 0 1 9 5s2.52-1.29 2-2c-4.05-1.96-7.51-5.13-12-6 2.65-3.68-2.62-5.97-5-8 2.3-6.04 10.54-9.72 12.77-16.23S808.15 225.93 810 221c-3.77-1.82-7.14-2.76-11-4-6.69 1.51-17.15-3.84-20.22 4.78-3.08 8.61-4.77 9.46-10.78 15.22 1.63 2.97-.05 4.71-2 7 5.82 1.3 4.73 11.87 10.99 12.01s10.24 3.98 13.01 6.99"/><path fill="#5d5af8" d="M799 268c12.07 8.11 24.05 21.57 29 35-.01.05 4.78-2.27.68-6.68S823.19 285.37 821 280c-1.52 3.75-5.81-1.62-6-4 5.74-1.32 6.77-5.46 8.71-9.3 1.93-3.83 8.46-7.74 7.29-12.7 4.73-1.03 15.06-.34 10-8 4.38-2.3 6.33 4.57 10 6-3.41-3.95-7.23-8.51-11-12a161 161 0 0 0-30-19c-1.85 4.93-11 8.26-13.23 14.77S786.3 245.96 784 252c2.38 2.03 7.65 4.32 5 8 4.49.87 7.95 4.04 12 6 .52.71-2 2-2 2"/><path fill="#00bffa" d="M385 266a97 97 0 0 0-4 7c5.74-7.27 10.06-7.49 14.25-16.75 4.2-9.25 12.7-8.66 13.08 1.42S422.16 264.73 426 269c-.72 4.54 2.93 3.36 6 5-6.44 7.97-13.33 18.06-13 27a75 75 0 0 1 10-18c.31-9.89 15.63-16.02 19-25-2.43-.45-3.65-4.43-3-7-12.17-3.4-20.83-22.28-33.25-12.25-12.43 10.02-17.17 15.58-26.75 27.25"/><path fill="#00cdfc" d="M574 296c-.51-1.16-1.68-1.78-2-3 5.75-3.67 7.81-11.3 16-13 1.25-6.59 11.3-6.09 14-13 9.78 8.6 15.94 20.09 24 30a165 165 0 0 0 9 8c-8.07-9.83-15.49-20.9-23-31-12.4-8.85-22.62-33.24-40-37 .42 4.78-5.59 2.16-7.75 5.25-2.16 3.1-7.76 4.46-10.25.75-2.05 1.97-1.29 3.47-1 6-5.49-3.04-9.99 3.31-15 4 8.99 14.14 24.57 28.38 36 43"/><path fill="#391c68" d="M851 252c1.1 1.09 2.96 2.8 4 4-3.87-5.87-9.31-11.51-15-16 3.77 3.49 7.59 8.05 11 12"/><path fill="#722ff8" d="M828 303c.38 1.03.64 1.98 1 3 2.7 7.65 5 14.59 5 23 .34 3.56.51 7.45 0 11-.54 14.15-5.82 28.55-14 40-4.96 6.94-9.99 12.1-17.08 16.92-7.1 4.81-14.03 10.35-22.99 12.01-8.97 1.66-20.92 5.22-30.93 3.07s-25.49 3.87-35 0c6.27 3.8 16.58.91 24 2-6.03 1.11-17.58 1.96-24 1s-6.45-10.59-11-14c-1.36 5.61-7.59 12.82-15 14 .07 5.34-6.49 4.76-8.11 7.9-1.61 3.13-6.38 3.85-10.89 3.1 2.12 7.32 14.91 14.18 11 21 2.29 3.08 4.69 9.18 8 11 6.9 2.52 19.57 0 27 0 20.18-3.9 50.28.05 70-5 19.73-5.05 34.81-12.62 50.25-24.75S859.2 401.53 870 387c14.43-19.41 12.55-47.81 11-71s-13.62-41.2-26-60c-1.04-1.2-2.9-2.91-4-4-3.67-1.43-5.62-8.3-10-6 5.06 7.66-5.27 6.97-10 8 1.17 4.96-5.36 8.87-7.29 12.7-1.94 3.84-2.97 7.98-8.71 9.3.19 2.38 4.48 7.75 6 4 2.19 5.37 3.58 11.91 7.68 16.32s-.69 6.73-.68 6.68"/><path fill="#02e6ef" d="M455 261c8.1-4.66 15.81-7.32 25-9 22.91-4.18 45.39 1.02 64 15-8.38-11.73-24.57-18.12-41-20s-37.67 2.6-48 14"/><path fill="#00adf9" d="M381 273a119 119 0 0 0-8 20c2.81-4.29 8.81-12.84 12-19 2.2 7.78 7.35 13.47 15.23 16.77s15.81 4.96 13.45 15.91S410.19 326.29 395 322c-2.41-6.34.57-18.33-2-22-.85 2.6-.36 8.27 0 11s-1.52 9.83 0 12c4.99-2.36 15.57 3.15 20 0 1.21-1.27.76-2.21 1-4 .85-6.3 2.76-12.07 5-18-.33-8.94 6.56-19.03 13-27-3.07-1.64-6.72-.46-6-5-3.84-4.27-17.29-1.25-17.67-11.33s-8.88-10.67-13.08-1.42-8.51 9.48-14.25 16.75"/><path fill="#00030f" d="M480 252c.88.19 3.46 1.42 3 3-7.55 1.5-17.7 3.25-22.25 9.75S446.38 268.79 447 280c-4.94-.99-9.74 4.58-8 9-9.06 2.54-5.27 13.86-14 18-.75 4.77-3.59 17.52-11 12-.24 1.79.21 2.73-1 4-1.77 1.86-6.4 1-9 1 .89.39 2.27 1.7 2 3-2.85 1.17-5.82 2-9 2-6.24 5.3-3.83 15.63-11 19 1.33 2.5 5.74-.57 7 2 7.26.7 14.72-.53 22 0 4.27 26.35 25.54 48.85 50 59 6.64.71 15.24-.2 22.68-1.32s19.13 2.76 26.39-2.61 5.22.98 12.6-2.4 15.83-4.88 22.58-9.42c5.98-5.85 11.54-10.86 15.75-17.25a79 79 0 0 0 8-16 69 69 0 0 0 3-10c.89-4.24 1.26-9.35 3-13 5.75 8.54 12.37 16.41 18 25 .94.94 2.78 1.44 3 3 8.21-2.05 3.54-9.57-.08-13.92S589.03 349.42 587 344c2.35-.26 6.07 1.03 7-2-2.74-2.93-6.53-6.11-3-10-7.59-7.5-15.62-18.65-17-29-8.83-12.11-17.44-26.57-30-36-18.61-13.98-41.09-19.18-64-15"/><path fill="#000f25" d="M455 261c-9.61 5.53-19.12 12.84-26 22a75 75 0 0 0-10 18c-2.24 5.93-4.15 11.7-5 18 7.41 5.52 10.25-7.23 11-12 8.73-4.14 4.94-15.46 14-18-1.74-4.42 3.06-9.99 8-9-.62-11.21 9.19-8.76 13.75-15.25 4.55-6.5 14.7-8.25 22.25-9.75.46-1.58-2.12-2.81-3-3-9.19 1.68-16.9 4.34-25 9"/><path fill="#0c465f" d="M644 257c28.56 1.14 57.41 0 86 0-.04 0 0-1 0-1-9.98 0-21.14.5-31 0s-20.5 1.41-30 0-21.19 3.25-30 0c1.7.83 2.74.91 5 1"/><path fill="#274165" d="M730 257h36c-2.7-2-8.4-1-12-1h-24s-.04 1 0 1"/><path fill="#040a2a" d="M829 306c-.36-1.02-.62-1.97-1-3-4.95-13.43-16.93-26.89-29-35a86 86 0 0 0-9-5c-6.36-3.14-15.71-6.49-23-6h-37c-28.59 0-57.44 1.14-86 0 1.88 3.09 10.08 3.92 16 4s14.14.66 19.98 2.02c5.83 1.37 13.38 1.65 19.34 1.32 5.97-.33 13.2-.87 19.68-.34 6.47.52 14.28-1.41 19.92-1.93s10.92 3.95 17.06.91 10.64.45 16.33 1.67c5.69 1.21 12.01.92 17.46 4.58s8.6 6.58 12.33 9.67 10.14 6.15 12.98 11.02 7.7 8.09 8.92 14.08c1.93-1.57 3.97.55 5 2"/><path fill="#00bafc" d="M574 296c8.31 10.63 15.59 22.46 24 33-9.91-18.96 8.41-29.54 22-39 2.11 2.29 3.64 5.22 6 7-8.06-9.91-14.22-21.4-24-30-2.7 6.91-12.75 6.41-14 13-8.19 1.7-10.25 9.33-16 13 .32 1.22 1.49 1.84 2 3"/><path fill="#009cf6" d="M373 293c-.51 1.67-1.67 3.91-2 6 2.73 4.28 17.48-.84 22 1 2.57 3.67-.41 15.66 2 22 15.19 4.29 16.31-4.38 18.68-15.32 2.36-10.95-5.57-12.61-13.45-15.91S387.2 281.78 385 274c-3.19 6.16-9.19 14.71-12 19"/><path fill="#0aa5f9" d="M598 329c4.54 5.7 10.17 12.26 13 19a156 156 0 0 1 11 19c2.99 3.98 6.14 8.16 9 12-2.15-6.77-4.82-13.05-10.3-19.7s-1.75-15.68-1.7-22.3c4.97-2.07 6.8-8.11 11.23-9.77s10.94-1.17 10.77-7.23c8 6.21 14.86 18.52 22 23-9.41-12.54-18.15-26-28-38a165 165 0 0 1-9-8c-2.36-1.78-3.89-4.71-6-7-13.59 9.46-31.91 20.04-22 39"/><path fill="#001333" d="M376 368c.11-.75 1.9-2.58 1-4 9.88 1.44 8.17-11.59 15-14 .49-.06 1 0 1 0-1.26-2.57-5.67.5-7-2 7.17-3.37 4.76-13.7 11-19 3.18 0 6.15-.83 9-2 .27-1.3-1.11-2.61-2-3-2.63 0-9.48 1.17-11-1s.36-9.27 0-12-.85-8.4 0-11c-4.52-1.84-19.27 3.28-22-1-1.79 2.51.91 6.64 3 9-5.36 7.94-17.64 4.86-23.75 12.25S342.3 337.5 349 345c-4.38 16.08 17.35 10.8 27 11zm-11-18c-3.21 0-9.82 1.18-12-1-4.9-4.16.8-15.1-1-22s14.26-5 19-5c1.56 0 3.47-.3 5 0 9.03 1.26 1.15 10.14 4 19s-7.36 9-15 9"/><path fill="#040720" d="M597 362c2.61 3.31 6.47 7.05 8.25 10.75 1.79 3.69 7.67 7.1 7.75 11.25 1.54-.96 1.86-3.41 4-4 12.29-1.38 12.5 16.97 23 19 2.73 10.04 9.98 14.74 15.25 22.75s11.24 14.82 15.5 22.5S681.67 457.65 689 464c9.24-2.28 20.93.47 29.99.99s21.41-.61 29.98.03 19.1.32 27.78-1.22 15.66-5.23 23.5-6.54 10.9-7.12 19.75-6.26c20.39-14.91 41.32-28.83 46-54-19.58 35.14-60.95 61-101 61-10.97 1.06-26.48 2.67-38 1s-29.24 4.38-39-1c-3.31-1.82-5.71-7.92-8-11-4.76-6.4-9.33-12.6-14-19-4.82-6.61-9.18-13.51-14-20-2.89-3.88-6.15-7.89-9-12-3.83-5.53-7.94-11.54-12-17-2.86-3.84-6.01-8.02-9-12-3.35-4.46-6.79-9.6-10-14-12.17-16.69-25.81-33.27-38-50 1.38 10.35 9.41 21.5 17 29-3.53 3.89.26 7.07 3 10-.93 3.03-4.65 1.74-7 2 2.03 5.42 9.3 2.73 12.92 7.08s8.29 11.87.08 13.92c-.22-1.56-2.06-2.06-3-3"/><path fill="#188ff9" d="M631 379c4.06 5.46 8.17 11.47 12 17-3.25-9.6-12.17-20.72-11.66-31.68s8.79-4.6 6.66-13.32c6.12.74 9.16-6.82 15-5-.68-3.05 3.28-3.54 2-7 5.7 3.93 10.23 13.57 16 15-2.7-3.6-5.35-7.47-8-11-7.14-4.48-14-16.79-22-23 .17 6.06-6.34 5.57-10.77 7.23s-6.26 7.7-11.23 9.77c-.05 6.62-3.79 15.66 1.7 22.3s8.15 12.93 10.3 19.7"/><path fill="#18c8e2" d="M353 349c.97.82 3.86-.62 5 0-9.78-2.61-2.41-10.09-4-19s12.79-3.98 17-8c-4.74 0-20.8-1.9-19 5s-3.9 17.84 1 22"/><path fill="#05baf9" d="M353 349c2.18 2.18 8.79 1 12 1 .81-.15 3.35-1.21 4-2-12.2 1.63-7.69-6.57-5.23-13.23S369.9 322.1 379 324c-.24-1.67-2.85-.17-3-2-1.53-.3-3.44 0-5 0-4.21 4.02-18.59-.91-17 8s-5.78 16.39 4 19c-1.14-.62-4.03.82-5 0"/><path fill="#0a94f5" d="M365 350c7.64 0 17.85-.14 15-9s5.03-17.74-4-19c.15 1.83 2.76.33 3 2-9.1-1.9-12.77 4.11-15.23 10.77S356.8 349.63 369 348c-.65.79-3.19 1.85-4 2"/><path fill="#00507d" d="M404 324c2.6 0 7.23.86 9-1-4.43 3.15-15.01-2.36-20 0 1.52 2.17 8.37 1 11 1"/><path fill="#431b81" d="M834 340c.51-3.55.34-7.44 0-11 0 3.66.14 7.35 0 11"/><path fill="#0751cb" d="M576 350c1.32-1.26 3.49 11.91 5.99 16.01 2.5 4.09 7.89 10.72 9.94 16.06 2.04 5.35 10.31 10.18 7.07 16.93 3.61.27 5.03-6.67 8-5 1.93-3.03 3.87-6.84 6-10-.08-4.15-5.96-7.56-7.75-11.25-1.78-3.7-5.64-7.44-8.25-10.75-5.63-8.59-12.25-16.46-18-25-1.74 3.65-2.11 8.76-3 13"/><path fill="#267bf8" d="M643 396c2.85 4.11 6.11 8.12 9 12-1.32-4.71-3.91-11.53-8-17 4.72-4.14 9.59-9.54 11-16 7.53-1.45 13.64-5.62 21-9 4.68 4.21 7.96 14 14 14-6.37-8.56-12.64-17.53-19-26-5.77-1.43-10.3-11.07-16-15 1.28 3.46-2.68 3.95-2 7-5.84-1.82-8.88 5.74-15 5 2.13 8.72-6.15 2.36-6.66 13.32S639.75 386.4 643 396"/><path fill="#2bbaed" d="M612 353c3.21 4.4 6.65 9.54 10 14a156 156 0 0 0-11-19c.7 1.68.69 4.16 1 5"/><path fill="#126cef" d="M576 350a69 69 0 0 1-3 10c-2.04 11.16-6.94 24-13.25 34.75s-18.23 15.62-28.43 22.57S502.2 426.04 490 425s-25.09-4.93-35.07-11.93-22.52-11.6-30.68-20.32S411.33 370.59 402 364c-2.14 2.02-4.41-.86-7 0 .3 1.57-.25 3.61-2 4v1c-2.86 2.96-11.07.79-15 2-.59 2.84 1.22 6.98-1 9v11c4.64 1.85 19.7-3.34 22 2s.43 17.49-3 20c26.68 33.93 72.68 50.16 114.78 45.78s74.01-30 96.22-64.78c-2.97-1.67-4.39 5.27-8 5 3.24-6.75-5.03-11.58-7.07-16.93s-7.44-11.97-9.94-16.06c-2.5-4.1-4.67-17.27-5.99-16.01"/><path fill="#006671" d="M327 372c-.04 0 0-1 0-1-1.79 0-5.39.71-7 0-5.14-2.26-.3-14.94-2-20h15c2.08.08 3.55-.4 5 1 .26.25 1 0 1 0-.95-4.44-11.62-1.6-17-2-5.37-.4-5.2 7.13-5 14s1.91 8 10 8"/><path fill="#002e6a" d="M376 368v1c4.73-2.4 10.83-.27 16-1v-18c-6.83 2.41-5.12 15.44-15 14 .9 1.42-.89 3.25-1 4"/><path fill="#0a4e9a" d="M376 369c0 3.99-2.12 19.82 1 22v-22h16v-16c0-.39.26-2.76 0-3 0 0-.51-.06-1 0v18c-5.17.73-11.27-1.4-16 1"/><path fill="#1ba5f0" d="M393 353c2.45-3.47 18.89-2.13 19.97 3.03 1.09 5.16 4.85 13 8.28 17.72 3.44 4.71 6.16 11.12 10.5 15.5 4.35 4.37 8.31 7.81 13.33 11.67 5.03 3.85 10.56 6.7 16.6 9.4 6.03 2.7 12.6 4.78 19.39 6.61 6.8 1.82 17.73.75 24.93 1.07s13.23-3.22 19.08-5.92c5.84-2.71 12.16-4.86 17.15-8.85s9.57-7.67 14.02-11.98 6.93-11.08 8.75-15.25c-4.21 6.39-9.77 11.4-15 17-.51.55-.64 1.41-1 2-7.25 11.91-21.07 14.16-33.01 18.99-11.94 4.84-32.81 3.31-41.99-1.99a125 125 0 0 1-9-3c-24.46-10.15-45.73-32.65-50-59-7.28-.53-14.74.7-22 0 .26.24 0 2.61 0 3"/><path fill="#01dcf3" d="M320 371c-3.11-2.01-.6-12.37-1-16s11.7-3.87 14-4h-15c1.7 5.06-3.14 17.74 2 20"/><path fill="#01bcfa" d="M320 371c1.61.71 5.21 0 7 0 1.97 0 4.04.18 6 0-1.7-.04-4.79-2.07-7-2 2.93-5.79 4.75-13.88 11-16 .62 3.5-1.27 8.32 1 11 .08-3.96-.36-8.06 0-12-1.45-1.4-2.92-.92-5-1-2.3.13-14.4.37-14 4s-2.11 13.99 1 16"/><path fill="#004f75" d="M338 364c-.05 2.33.04 4.67 0 7h-5c-1.96.18-4.03 0-6 0 0 0-.04 1 0 1 14.25 0 13.2-6.58 12-20 0 0-.74.25-1 0-.36 3.94.08 8.04 0 12"/><path fill="#0e85f7" d="M393 353v15c1.75-.39 2.3-2.43 2-4 2.59-.86 4.86 2.02 7 0 9.33 6.59 14.09 20.03 22.25 28.75s20.69 13.32 30.68 20.32S477.8 423.96 490 425s31.12-.72 41.32-7.68 22.12-11.82 28.43-22.57S570.96 371.16 573 360a79 79 0 0 1-8 16c-1.82 4.17-4.31 10.93-8.75 15.25-4.45 4.31-9.03 7.99-14.02 11.98s-11.31 6.14-17.15 8.85c-5.85 2.7-11.88 6.24-19.08 5.92s-18.13.75-24.93-1.07c-6.79-1.83-13.36-3.91-19.39-6.61s-11.57-5.55-16.6-9.4c-5.02-3.86-8.98-7.3-13.33-11.67s-7.06-10.79-10.5-15.5c-3.43-4.72-7.19-12.56-8.28-17.72s-17.52-6.5-19.97-3.03"/><path fill="#00a2f9" d="M333 371h5c.04-2.33-.05-4.67 0-7-2.27-2.68-.38-7.5-1-11-6.25 2.12-8.07 10.21-11 16 2.21-.07 5.3 1.96 7 2"/><path fill="#3566f8" d="M652 408c4.82 6.49 9.18 13.39 14 20-.61-4.23 2.13-7.17-4.25-11.75s1.79-7.15 4.92-9.58c3.14-2.42 8.02-7.09 9.33-10.67 4.27-.21 10.73-5.21 14-9 2.76 1.14 4.52 1.31 7 3-2.39-3.21-4.67-6.86-7-10-6.04 0-9.32-9.79-14-14-7.36 3.38-13.47 7.55-21 9-1.41 6.46-6.28 11.86-11 16 4.09 5.47 6.68 12.29 8 17"/><path fill="#0393f8" d="M377 380c2.22-2.02.41-6.16 1-9 3.93-1.21 12.14.96 15-2h-16z"/><path fill="#0a052a" d="M710 406c1.21 1.63 2.18 4.9 4 6 9.51 3.87 24.99-2.15 35 0s21.96-1.41 30.93-3.07 15.89-7.2 22.99-12.01c7.09-4.82 12.12-9.98 17.08-16.92-.02-2.68-9.8 3.92-12.25 6.75s-9.55 5.62-13.72 8.28-10.47 4.58-16.01 5.99c-5.53 1.42-12.36 2.12-18 3-5.63.89-12.76 1.07-18.02 1.98s-16.66-1.63-20.98 1.02c-4.31 2.65-11.61-4.85-11.02-1.02"/><path fill="#4852f7" d="M666 428c4.67 6.4 9.24 12.6 14 19 3.91-6.82-8.88-13.68-11-21 4.51.75 9.28.03 10.89-3.1 1.62-3.14 8.18-2.56 8.11-7.9 7.41-1.18 13.64-8.39 15-14 4.55 3.41 4.58 13.04 11 14s17.97.11 24-1c-7.42-1.09-17.73 1.8-24-2-1.82-1.1-2.79-4.37-4-6-3.93-5.28-9.02-10.65-13-16-2.48-1.69-4.24-1.86-7-3-3.27 3.79-9.73 8.79-14 9-1.31 3.58-6.19 8.25-9.33 10.67-3.13 2.43-11.3 5-4.92 9.58s3.64 7.52 4.25 11.75"/><path fill="#b21fea" d="M715 458h50c40.05 0 81.42-25.86 101-61 1.7-3.05 2.41-6.89 4-10-10.8 14.53-19.31 29.11-34.75 41.25S804.73 447.95 785 453c-19.72 5.05-49.82 1.1-70 5"/><path fill="#1757a3" d="M345 408c0 .04 1 0 1 0 .45-4.96-.34-10.03 0-15h18c-5.34-2.32-12.84-.34-19-1 .36 5.3-.48 10.71 0 16"/><path fill="#1c6af9" d="M346 408c6.31 4.37 11.84-14.03 15-15h-15c-.34 4.97.45 10.04 0 15"/><path fill="#3149ed" d="M346 408s-1 .04-1 0v4h19c-2.23-4.77 2.98-14.75 0-19h-3c-3.16.97-8.69 19.37-15 15"/><path fill="#021027" d="M465 409a125 125 0 0 0 9 3c24 6.6 56.69-.21 75-17 .36-.59.49-1.45 1-2-7.5 4.79-15.94 6.29-23.33 9.67s-5.33-2.96-12.6 2.4c-7.26 5.37-18.95 1.48-26.39 2.61S471.64 409.71 465 409"/><path fill="#3ac5eb" d="M474 412c9.18 5.3 30.05 6.83 41.99 1.99S541.75 406.91 549 395c-18.31 16.79-51 23.6-75 17"/><path fill="#3f1371" d="M765 458h-50c-7.43 0-20.1 2.52-27 0 9.76 5.38 27.48-.67 39 1s27.03.06 38-1"/><path fill="#f2f2f2" d="M174 517c-.63 9.26-.84 19.75 0 29 1.75 8.44 5.84 13.5 15 14 11.37.62 23.64.77 35 0 20.65-1.41 12.21-20.07 15-36s-14.17-25.26-29-22-34.59-5.76-36 15m49-6c9.95 2.31 4.45 15.25 6 23s-.73 18.99-11.01 17.99-18.04 1.21-28.01-.97-5.9-14-6.98-22.02.58-19.88 11-18 18.98-2.33 29 0"/><path fill="#f4f4f4" d="M270 541c1.91-2.73 8.58-.52 12-1s10.15-.33 13 1c6.95 3.25 9.64 13.19 15 18 3.43 2.19 8.14.42 12 1-.3-1.25-1.83-1.71-2-3-4.38-5.65-9.17-10.96-13-17 7.46 1.15 12.44-4.69 14-11 .56-4.51.56-10.49 0-15-8.97-22.02-40.9-8.06-60-12v58h9c2.23-4.77-2.98-14.75 0-19m0-9v-21c12.41 4.12 40.98-9.53 42 10s-29.45 7.95-42 11"/><path fill="#f2f2f3" d="M345 560h10v-58h-10c.52 6.17-.69 14 0 20s-1.38 13.56 0 19-3 14.71 0 19"/><path fill="#f3f3f3" d="M392 560c10.98.75 23.02.75 34 0 16.72-.24 14.42-20.02 14-32-6.41-.3-12.57.39-19 0s-13.8-.94-11 8c6.18 1.74 19.64-4.03 21 4s-4.48 12.22-12 12-16.81.35-24.33-.67-9.12-9.52-7.67-16.33-3.38-17.17 2.78-22.22 14.67.61 22.22-1.78 13.64 2.04 19 5c2.35.86 5.57-.64 8 0v-3c-1.35-11.7-16.29-11.92-26-11s-23.36-3.23-31.25 4.75c-7.88 7.99-3.44 21.91-4.75 32.25s4.2 20.27 15 21"/><path fill="#f5f5f5" d="M464 560c4.25 2.98 13.64-1.39 19 0s13.17-.72 19 0 13.05-.54 19 0v-8c-7.1-1.17-18.31 1.56-25 0s-18.44 3.56-23-1c-1.77-1.77-2.15-14.49 0-16 7.84-.3 17.33.41 25 0s20.02 3.48 17-8c-6.29-.97-16.05 1.3-22 0s-15.94 3.06-20-1c-1.73-1.73-2.12-13.52 0-15h48v-9h-58c.39 6.25-.52 13.89 0 20s-.99 14.4 0 20-2.73 14.27 1 18"/><path fill="#f0f0f0" d="M543 560c1.26.88 6.39 0 8 0-.5-5.55.25-17.01 0-22s-.71-20.2 2-19c4.55 9.68 10.51 11.49 15.25 21.75s13.46 9.51 17.83-.67c4.38-10.18 10.64-11.47 14.92-21.08 2.98 5.22-.54 15.21 1 21s-3.09 15.91 1 20c2.01 1.41 6.74-1.06 9 0v-58c-11.37-3.4-14.74 9.37-20.25 15.75S582.19 532.16 576 537c-4.29-7.13-9.64-13.87-14.25-20.75S551.92 499.45 542 502c.39 6.25-.52 13.89 0 20s-.99 14.4 0 20-2.73 14.27 1 18"/><path fill="#01baf7" d="M662 534c.31-1.9 2.52-4.49 2-7 2.4-.05 4.04 1.97 6 3 2.53-4.37-3.93-16.77 1.26-19.74 5.19-2.98 16.01 1.69 21.74-.26.28-8.37 10.55-4.58 15-7-14.85-2.26-30.73-.39-46-1z"/><path fill="#0392ee" d="M742 544c.63-2.44 4.72-7.5 8-7 .11 1-.47 2.73 1 3v-38h-9z"/><path fill="#043462" d="M751 540v20h-9c3.44 4.91 12.15-.48 10-6s1.31-12.64 0-18 1.34-13.23 0-18 2.81-13.33-1-16z"/><path fill="#0f7bed" d="M774 515c-.92 7.41 0 15.53 0 23 .81-2.42 4.44-4.22 7-4 1.3 3.4.09 8.15 2 11 1.61-8.26-5.01-32.76 7-34s27.98-3.21 34 6c2.33-1.61 5.28-.83 8-1 .07-16.13-16.88-13.76-29-14s-25.55-.92-29 13"/><path fill="#19328d" d="M856 560v-58c-3.41 2.39-.48 14.5-1 19s-.54 15.52 0 20-2.44 16.59 1 19"/><path fill="#2f50ec" d="M856 560h9v-58c-2.26 1.06-6.99-1.41-9 0z"/><path fill="#3d49f0" d="M906 560h9c.67-16.17-1.33-33.66 1-49 5.14-3.6 17.86 3.6 23 0v-9h-56v9h23c.43 5.23-.58 11.92 0 17s-1.17 11.4 0 16-2.53 12.38 0 16"/><path fill="#1b1c68" d="M939 511c1.68-1.18 1.72-7.8 0-9z"/><path fill="#602eee" d="M942 560c2.65-.82 6.47 1.09 9 0 2.89-5.51 7.04-15.91 15-13s21.13-4.02 27.22.78 3.14 17.37 15.78 12.22c-5.86-10.32-10.15-22.81-16.22-32.78-6.07-9.96-7.63-28.09-22.78-25.22-1.15 5.07-5.21 10.24-7.08 14.92-1.86 4.69-5.28 9.64-7 14-1.71 4.37-6.27 10.9-7.15 14.85S940.11 556.91 942 560m34-48c3.52 9.2 9.41 17.54 12 27h-26c4.58-8.77 7.81-19.17 14-27"/><path fill="#7f1ef3" d="M1035 502h-9v58c8.35-.47 18.86.63 27 0s21.86 4.07 19-8h-37z"/><path fill="#01a6f1" d="M662 534c0 6.65-2.65 20.03 0 26 .08.19 1.5 0 2 0 .6-5.14-1.83-11.71 1-17 2.64-1.15 3.76 3.03 6 1 0-4.62-.68-12.73 0-17s-2.29-13.7 1-16c3.5-2.45 10.47 1.07 15 0s11.02.59 16 0 7.05 4.16 8 8c1.44 5.83 1.26 13.44 1 20 1-6.87-.38-16.26 7-20 .66 6.16-1.32 13.66 1 19 0-6.63.36-13.38 0-20-.42-7.72-4.51-12.97-12-15-4.45 2.42-14.72-1.37-15 7-5.73 1.95-16.55-2.72-21.74.26-5.19 2.97 1.27 15.37-1.26 19.74-1.96-1.03-3.6-3.05-6-3 .52 2.51-1.69 5.1-2 7"/><path fill="#02050f" d="M223 511c-10.02-2.33-18.58 1.88-29 0s-12.08 9.98-11 18-3 19.85 6.98 22.02c9.97 2.18 17.73-.03 28.01.97S230.55 541.75 229 534s3.95-20.69-6-23"/><path fill="#02050e" d="M270 532c12.55-3.05 43.02 8.53 42-11s-29.59-5.88-42-10z"/><path fill="#818483" d="M473 526c-2.35-3.36 1.76-11.23 0-15-2.12 1.48-1.73 13.27 0 15"/><path fill="#001c2c" d="M671 544c0 2.26-.3 4.76 0 7 .01.07 1 0 1 0 1.2-13.23-.9-26.75 0-40-3.29 2.3-.32 11.73-1 16s0 12.38 0 17"/><path fill="#00030e" d="M672 551c10.18 0 21.99 1.69 32 0 4.5-1.37 5.57-2.57 7-7 1.22-7.21.9-17.73 0-25-.95-3.84-3.02-8.59-8-8s-11.47-1.07-16 0-11.5-2.45-15 0c-.9 13.25 1.2 26.77 0 40"/><path fill="#231d75" d="M906 560c2.35 2.25 6.83.4 10 1v-50c-2.33 15.34-.33 32.83-1 49z"/><path fill="#020314" d="M976 512c-6.19 7.83-9.42 18.23-14 27h26c-2.59-9.46-8.48-17.8-12-27"/><path fill="#6a6b6d" d="M431 516c4.35 2.4 8.52 1.5 8-3v3c-2.43-.64-5.65.86-8 0"/><path fill="#75777a" d="M321 529a32.5 32.5 0 0 0 0-15c.56 4.51.56 10.49 0 15"/><path fill="#01366c" d="M774 547c-.27-2.94 0-6.04 0-9 0-7.47-.92-15.59 0-23-2.21 8.91-1.87 22.99 0 32"/><path fill="#656366" d="M174 546c-.84-9.25-.63-19.74 0-29-1.53 8.54-1.78 20.4 0 29"/><path fill="#888b8b" d="M551 560h1c1.22-13.46-1.74-28.28 1-41-2.71-1.2-2.25 14.01-2 19s-.5 16.45 0 22"/><path fill="#004d7c" d="M720 538c0 2.63.24 5.38 0 8 1.73-8.33 1.37-19.59 0-28 .36 6.62 0 13.37 0 20"/><path fill="#015c89" d="M711 544c.5-1.56.92-2.91 1-5 .26-6.56.44-14.17-1-20 .9 7.27 1.22 17.79 0 25"/><path fill="#0390f6" d="M712 539c-.08 2.09-.5 3.44-1 5-1.43 4.43-2.5 5.63-7 7-3.96 1.2-11.44 1.82-16 1s-13.87 2.25-17-1c-.3-2.24 0-4.74 0-7-2.24 2.03-3.36-2.15-6-1-2.83 5.29-.4 11.86-1 17 13.23 0 26.81.9 40 0 9.47-.64 14.14-5.01 16-14 .24-2.62 0-5.37 0-8-2.32-5.34-.34-12.84-1-19-7.38 3.74-6 13.13-7 20"/><path fill="#2662f2" d="M783 545c-1.91-2.85-.7-7.6-2-11-2.56-.22-6.19 1.58-7 4 0 2.96-.27 6.06 0 9 1.56 7.53 5.86 12.56 14 13 10.12.55 20.88.55 31 0 16.72-.05 14.41-20.12 14-32-6.39-.37-12.59.5-19 0s-12.5-.4-10 8h20c4.17 11.84-6.27 18-16 16s-21.42 4.33-25-7"/><path fill="#7b7e7d" d="M473 551c-2.51-3.58 1.88-11.98 0-16-2.15 1.51-1.77 14.23 0 16"/><path fill="#0c79f1" d="M742 544c0 3.22-1.76 13.48 0 16h9v-20c-1.47-.27-.89-2-1-3-3.28-.5-7.37 4.56-8 7"/><path fill="#918e8f" d="M270 541c7.82 1.72 17.35-2.29 25 0-2.85-1.33-9.58-1.48-13-1s-10.09-1.73-12 1"/><path fill="#043a56" d="M704 551c-10.01 1.69-21.82 0-32 0 0 0-.99.07-1 0 3.13 3.25 12.44.18 17 1s12.04.2 16-1"/><path fill="#585b5f" d="M310 559c2.53 3.61 9.33 2.17 13 1-.14-1.6-2.16-2.02-3-3 .17 1.29 1.7 1.75 2 3-3.86-.58-8.57 1.19-12-1"/><path fill="#77787c" d="M224 560c-11.36.77-23.63.62-35 0 10.39 1.69 24.55 1.87 35 0"/><path fill="#5b5b60" d="M355 560h-10c1.2 1.72 8.77 1.76 10 0"/><path fill="#75767a" d="M426 560c-10.98.75-23.02.75-34 0 10.02 1.8 23.91 1.81 34 0"/><path fill="#646669" d="M521 560c-5.95-.54-13.17.72-19 0s-13.64 1.39-19 0-14.75 2.98-19 0c3.3 3.3 14.1.49 19 1s15.35.47 20 0 15.61 2.42 18-1"/><path fill="#57595d" d="M552 560h-1c-1.61 0-6.74.88-8 0 1.62 1.62 7.35 1.71 9 0"/><path fill="#5f5f64" d="M612 560c-2.26-1.06-6.99 1.41-9 0 1.43 1.43 7.65 1.93 9 0"/><path fill="#023967" d="M704 560c-13.19.9-26.77 0-40 0-.5 0-1.92.19-2 0 .86 2.97 10.7.2 14 1s11.1-.61 15 0 9.66-.4 13-1"/><path fill="#132a74" d="M819 560c-10.12.55-20.88.55-31 0a106 106 0 0 0 31 0"/><path fill="#280d65" d="M951 560c-2.53 1.09-6.35-.82-9 0 1.37 2.24 7.36 1.05 9 0"/><path fill="#b6b7bc" d="M362 593c-5.42-7.07-15.87.17-14.78 7.78 1.1 7.6 11.53 11.07 15.78 4.22-4.45.49-12.48 3.06-13-5s7.42-6.58 12-7"/><path fill="#b4b5b9" d="M412 590c-12.06-2.02-15.29 16.17-3.67 18.67S423.07 591.85 412 590m1 3c7.91 2.66 1.02 17.68-6.67 12.67S405.26 590.4 413 593"/><path fill="#43454c" d="M441 608c-3.31.3-6.69-.22-10 0 .65-5.5-1.32-12.33 1-17 .26-.25 1 0 1 0-3.27-3.37-2.87 9.39-3 13s6.76 8.38 11 4"/><path fill="#b7b9be" d="M461 590c-11.8-1.97-15.22 15.95-3.67 18.67 11.55 2.71 14.8-16.81 3.67-18.67m2 3c7.18 3.02 1 17.37-6.67 12.67S454.94 589.61 463 593"/><path fill="#b7b8bc" d="M494 593c-5.11-6.14-15.88-1.15-14.99 6.99.88 8.14 9.34 11.11 15.99 7.01.69-4.78.21-9.98-6-8 .8 2.72 4.57 2.79 3 7-6.39 1.16-11.72-1.73-10.32-8.32s8.22-3.95 12.32-4.68"/><path fill="#505355" d="M508 591c2.26 4.75.39 11.49 1 17 2.93-.96.79-18.79-1-17"/><path fill="#57585d" d="M623 608v-17h7c-3.79-1.54-9.29-.23-8 4s-2.49 11.86 1 13"/><path fill="#babcc1" d="M679 593c-1.79-8.39-17.69 2.36-9.08 6.08 8.62 3.71 7.21 7.59-1.92 6.92 2.68 3.82 10.09 4.08 10.99-1.99s-9.8-4.69-7.99-11.01c2.79-.76 5.77 1.28 8 0"/><path fill="#5b5f63" d="M727 591c2.26 4.75.38 11.49 1 17 3.1-1.78.43-18.43-1-17"/><path fill="#b1b3b6" d="M754 593c-4.33-6.39-12.66-1.4-14.22 4.78s5.58 10.6 9.22 13.22c-4.72 1.41-1.57 4.61 2 2-4.08-5.44 1.55-4 4-8-4.34.64-12.42 2.87-12.99-4.99s7.65-6.96 11.99-7.01"/><path fill="#53545a" d="M805 608v-17h8c-3.48-1.28-10.62-1.24-9 4s-2.97 10.22 1 13"/><path fill="#333439" d="M833 590c-3.43-1.67-5.08 17.51-1.7 18.64s4.5-17.28 1.7-18.64m-1 18c-1.62-4.59-1.7-12.48 0-17 1.62 4.59 1.7 12.48 0 17"/><path fill="#bababe" d="M860 593c-6.67-6.82-20.85 1-14.75 11.75s24.83-4.09 8.75-5.75c.79 3.06 6.03 1.9 4 7-6.05 1.85-12.94-2.22-10.92-8.92s8.9-2.46 12.92-4.08"/><path fill="#c9cacd" d="M314 592c-3.53-1.71-10.4-1.59-14 0 9.63-.69 4.05 10.5 7 16 3.01-5.32-2.68-16.79 7-16"/><path fill="#c4c5ca" d="M336 592c-2.68-2.27-7.5-.38-11-1v17c3.84-.57 8.91 1.19 12-1-2.93-1.84-6.66-.68-10-1-2.14-6.65 4.61-5.53 8-7-2.86-2.21-10.32.86-8-6 2.85-.5 6.9 1.08 9-1"/><path fill="#c1c2c7" d="M376 608c.84-3.18-1.98-13.61 2-12 3.73 3.78 4.89 11.65 11 12-.62-5.51 1.26-12.25-1-17-2.86 3.2.83 9.73-2 13-4.12-4.08-5.45-13.09-12-13 .2 2.33-1.15 18.03 2 17"/><path fill="#dfdee0" d="M441 608s.25-.74 0-1c-2.98-.27-6.02.2-9 0v-16c-2.32 4.67-.35 11.5-1 17 3.31-.22 6.69.3 10 0"/><path fill="#b3b5b6" d="M441 607c-1.7-2.19-5.48-.44-8-1-.33-4.97.44-10.04 0-15 0 0-.74-.25-1 0v16c2.98.2 6.02-.27 9 0"/><path fill="#cdcdd0" d="M509 608c-.61-5.51 1.26-12.25-1-17-1.73 1.73-1.8 17.91 1 17"/><path fill="#babcc1" d="M530 591c-6.56 1.71-6.12 11.84-10 17 4.14-.85 3.97-4.37 9-4s3.64 3.29 8 4a285 285 0 0 1-7-17m1 11c-6.83 1.84-4.62-4.43-3-8 2 1.94 2.79 5.15 3 8"/><path fill="#c5c7cd" d="M573 592c-2.68-2.27-7.5-.38-11-1v17c3.51-.55 8.24 1.16 11-1-3.69-2.04-11.64.81-9-7 2.52-.47 6.23 1.03 8-1-2.86-2.21-10.32.86-8-6 2.85-.5 6.9 1.08 9-1"/><path fill="#bdbfc5" d="M601 608c-1.15-8.83 5.69-4.2 9.67-9.33S604.52 588.13 600 591c.61 5.51-1.26 12.25 1 17m1-15c15.05-2.42-1.88 14.15 0 0"/><path fill="#c0c1c6" d="M623 608c3.62.04 1.39-4.78 2-7 5.56-1.15 4.16 8.33 10 7-1.64-2.7-3.72-5.07-5-8 5.94-1.3 4.53-7.16 0-9h-7zm2-15c15.05-2.42-1.88 14.15 0 0"/><path fill="#cbcdd2" d="M657 592c-2.68-2.27-7.5-.38-11-1v17c3.51-.55 8.24 1.16 11-1-3.69-2.04-11.64.81-9-7 2.52-.47 6.23 1.03 8-1-2.86-2.21-10.32.86-8-6 2.85-.51 6.9 1.08 9-1"/><path fill="#c5c7cb" d="M702 592c-2.68-2.27-7.5-.38-11-1v17c3.51-.55 8.24 1.16 11-1-3.69-2.04-11.64.81-9-7 2.52-.47 6.23 1.03 8-1-2.86-2.21-10.32.86-8-6 2.85-.5 6.9 1.08 9-1"/><path fill="#bebfc3" d="M728 608c-.62-5.51 1.26-12.25-1-17-2.29 3.34-.36 8.83-1 13-4.28-3.65-5.78-12.25-12-13 .62 5.51-1.26 12.25 1 17 2.86-3.2-.83-9.73 2-13 2.09 1.82 7.48 15.02 11 13"/><path fill="#bbbcc1" d="M774 591c-6.91 1.35-6.89 11.64-10 17 3.95-5.34 11.51-5.08 16 0-1.46-5.85-5.14-11.01-6-17m-1 4c-.63 2.72 2.06 4.41 2 7-6.92 2.9-6.81-5.62-2-7"/><path fill="#b8bbc1" d="M805 608c10.03 7.02 22.24-11.74 8-17h-8zm2-2v-13c12.94-4.3 12.88 17.06 0 13"/><path fill="#c5c8cd" d="M832 608c1.7-4.52 1.62-12.41 0-17-1.7 4.52-1.62 12.41 0 17"/><path fill="#999a9f" d="M873 608a100 100 0 0 1 0-17c-1.99 1.93-2.05 15.02 0 17"/><path fill="#e3e4e9" d="M873 608s.74.25 1 0a100 100 0 0 0 0-17s-.74-.25-1 0a100 100 0 0 0 0 17"/><path fill="#6b6f71" d="M874 608c1.99-1.93 2.05-15.01 0-17a100 100 0 0 1 0 17"/><path fill="#b9babe" d="M890 593c3.07 3.33-.22 10.73 1 15 2.91-1.71 2.7-5.55 2-10s3.04-4.79 5-7h-13c-.95 3.57 4.06.98 5 2"/><path fill="#bcbec3" d="M922 608c-3.79-5.18-3.32-15.37-10-17-1.57 5.95-4.39 11.41-7 17 4.23-.91 3.85-4.29 9-4s3.94 3.07 8 4m-8-14c.13 2.95 2.88 5.02 3 8-7.06 2.43-6.65-4.76-3-8"/><path fill="#acaeb3" d="M935 591c-6.33 1.15-1.48 11.87-3 17 3.51-.55 8.24 1.16 11-1-1.7-2.19-5.48-.44-8-1z"/><path fill="#0a0c14" d="M413 593c-7.74-2.6-14.36 7.66-6.67 12.67S420.91 595.66 413 593"/><path fill="#070a13" d="M463 593c-8.06-3.39-14.34 7.97-6.67 12.67s13.85-9.65 6.67-12.67"/><path fill="#121419" d="M602 593c-1.88 14.15 15.05-2.42 0 0"/><path fill="#1b1b1e" d="M625 593c-1.88 14.15 15.05-2.42 0 0"/><path fill="#050812" d="M807 606c12.88 4.06 12.94-17.3 0-13z"/><path fill="#616267" d="M891 608c-1.22-4.27 2.07-11.67-1-15 1.35 2.56-2.23 13.94 1 15"/><path fill="#202125" d="M531 602c-.21-2.85-1-6.06-3-8-1.62 3.57-3.83 9.84 3 8"/><path fill="#242529" d="M914 594c-3.65 3.24-4.06 10.43 3 8-.12-2.98-2.87-5.05-3-8"/><path fill="#6b6f77" d="M376 608c3.41-1.12-1.23-10.36 2-12-3.98-1.61-1.16 8.82-2 12"/><path fill="#23252b" d="M773 595c-4.81 1.38-4.92 9.9 2 7 .06-2.59-2.63-4.28-2-7"/><path fill="#011832" d="M213 601c-.81-.15-3.35-1.21-4-2h6c2.66-.11 5.34 0 8 0h1c.25-.25 0-1 0-1-7.06.1-14.93-.67-21 2 2.93 1.61 6.66 1 10 1"/><path fill="#053a48" d="M224 599h32c-.25-.27 0-1 0-1h-32s.25.75 0 1"/><path fill="#021938" d="M256 599h13c-.47 1.98-3.6-.11-4 2 2.36-.3 6.02 1.03 7-2-4.99-1.57-10.64-1-16-1 0 0-.25.73 0 1"/><path fill="#111040" d="M981 601c-1.04-.16-4.11-1.18-5-2h54c-1.03 2.37-5.04-.46-6 2 4.88-.72 11.34 1.76 15-2-22.01-.96-46.75-2.94-68 1 2.94 1.61 6.66 1 10 1"/><path fill="#013769" d="M213 601h10c-1.83-.18-6.24-1.89-8-2h-6c.65.79 3.19 1.85 4 2"/><path fill="#026399" d="M223 601h9c-.04 0 0-1 0-1-3.1 0-6.64-.77-9-1-2.66 0-5.34-.11-8 0 1.76.11 6.17 1.82 8 2"/><path fill="#00bbda" d="M232 600c6.66 0 13.34.13 20 0 2.41-.05 5.3-.84 7-1h-36c2.36.23 5.9 1 9 1"/><path fill="#004681" d="M252 600v1c4.32 0 8.68.16 13 0 .4-2.11 3.53-.02 4-2h-10c-1.7.16-4.59.95-7 1"/><path fill="#2b2c93" d="M981 601h43c.96-2.46 4.97.37 6-2h-17c-6.92.67-15.15.66-22 0h-15c.89.82 3.96 1.84 5 2"/><path fill="#585ddc" d="M1013 599h-22c6.85.66 15.08.67 22 0"/><path fill="#017995" d="M232 601h20v-1c-6.66.13-13.34 0-20 0 0 0-.04 1 0 1"/><path fill="#02bcda" d="M535 648c3.44.89 7.51-.67 11 0 .09-1.39-4.19-.72-2-2 .16-7.37.5-15.41-8.92-12.92-9.43 2.48-5.45 12.68-.08 14.92m4-14c7.13 1.33 4.49 14.28-3 12s-3.56-13.22 3-12"/><path fill="#02b2ca" d="M667 633c-3.52-4.39-14.3 4.79-6.68 7.68s4.39 5.91-2.32 5.32c8.77 9.34 13.92-7.91 2-9 .64-4.01 7.23.09 7-4"/><path fill="#019ec2" d="M826 634c-3.15-2.68-9.54-2.39-9.97 2.97s10.04 3.14 7.97 9.03c-2.79.76-5.77-1.28-8 0 1.25 7.71 15.25-.43 9.74-4.74s-9.56-5.34.26-7.26"/><path fill="#03aace" d="M871 635c-1.13-8.6-14.84 3.1-6.69 5.69s4.39 7.93-2.31 4.31c.36 8.39 14.72-.19 8.75-3.75-5.98-3.55-7.53-7.88.25-6.25"/><path fill="#01b2cf" d="M374 648c-.5-7.83 5.61-3.49 9.22-8.78s-6.1-7.91-10.22-6.22c.6 4.84-1.24 10.91 1 15m7-10c-.56 2.75-4.07 1.82-6 2 .39-1.57-.94-4.22 1-5 1.92-1.12 6.15.11 5 3"/><path fill="#00aaca" d="M402 633c-5.8 2.12-5.48 10.41-9 15 4.23-2.84 11.06-4.81 15 0-.92-5.34-3.8-10.05-6-15m1 9c-8.71.97.77-9.85 0 0"/><path fill="#01bcd6" d="M428 641c7.72-4.69-.8-10.65-7-8 .6 4.84-1.24 10.91 1 15 1.08-9.56 4.66-3.36 9 0 0-2.7-3.25-4.17-3-7m-5-1c-1.31-11.32 12.2.7 0 0"/><path fill="#01b0d0" d="M451 633c-5 2.27-6.2 10.03-8 15 3.68-4.2 10.18-3.64 14 0-.92-5.34-3.8-10.05-6-15m1 9c-8.71.97.77-9.84 0 0"/><path fill="#01b3cf" d="M486 648c-.73-7.46 5.29-3.74 8.67-8.33s-5.81-9.05-9.67-6.67c.6 4.84-1.24 10.91 1 15m1-8c-1.31-11.32 12.2.7 0 0"/><path fill="#03c4da" d="M510 635c1.41-2.45 5.68.54 7-2h-9v15c3.18-.53 7.57 1.13 10-1-1.7-2.19-5.48-.44-8-1-2.02-6.22 4.07-4.21 7-6-1.22-1.87-10.02.24-7-5"/><path fill="#017290" d="M510 635c1.33.86 10.38-.36 7-2-1.32 2.54-5.59-.45-7 2"/><path fill="#00bcd3" d="M561 644c-2.05-2.84-.53-7.43-1-11-3.61 3.05-3.67 14.65 4 15s7.1-9.88 5-15c-.03 3.04-1.61 19.85-8 11"/><path fill="#017c9b" d="M561 644c-1.04-2.11 1.79-10.09-1-11 .47 3.57-1.05 8.16 1 11"/><path fill="#03bad4" d="M584 648h10c-.18-3.81-5.52-1.26-8-2-2.02-6.22 4.07-4.21 7-6-2.06-2.36-8.93.87-7-5 2.52-.47 6.22 1.03 8-1-2.35-2.25-6.83-.39-10-1 1.76 3.77-2.35 11.64 0 15"/><path fill="#00c3e0" d="M617 644c-3.6-3.36-4.08-11.02-10-11 .6 4.84-1.24 10.91 1 15 2.81-2.54-.77-8.39 2-11 3.2 3.57 4.92 10.45 10 11-.6-4.84 1.24-10.91-1-15-2.81 2.54.77 8.39-2 11"/><path fill="#01aec8" d="M641 633c-5.9 1.21-6.09 10.29-9 15a11.9 11.9 0 0 1 15 0c-1.48-5.18-4.52-9.84-6-15m1 9c-5.88 1.43-4.58-2.43-3-6 1.98 1.31 1.75 4.1 3 6"/><path fill="#03bcd5" d="M696 648c3.17-.6 7.65 1.25 10-1-1.97-1.97-5.09.4-7-1-1.54-1.12-.83-3.21-1-5 2.22-.61 7.04 1.62 7-2-3.14.02-8.58 1.01-7-4 2.52-.47 6.23 1.03 8-1-2.35-2.25-6.83-.39-10-1 1.76 3.77-2.35 11.64 0 15"/><path fill="#01b3d4" d="M726 643c-2.06-3.45-1.38-11.13-7-10 .6 4.84-1.24 10.91 1 15 2.81-2.54-.77-8.39 2-11 1.38 3.68 2.82 7.31 4 11 3.83-1.43 4.14-7.51 6-11 2.81 2.54-.77 8.39 2 11 2.31-4.01.35-10.17 1-15-6.74-1.62-3.87 9.14-9 10"/><path fill="#018fbc" d="M749 648c-.45-4.96.34-10.03 0-15-2.1 1.47-1.75 13.3 0 15"/><path fill="#02c2df" d="M749 648s.84.23 1 0c-.35-9.43 3.51-3.51 8-8 3.72-5.35-4.87-9.89-9-7 .34 4.97-.45 10.04 0 15m6-13c4.02 2.54-1.13 6.75-4 5-3.47-2.11.18-7.41 4-5"/><path fill="#03b8d2" d="M779 641c7.98-4.89-2.29-10.49-8-8 .6 4.84-1.24 10.91 1 15 .99-10.46 5.43-2.11 10 0-1.25-2.19-3.48-4.17-3-7m0-6c1.26 3.89-2.77 5.54-6 5-1.46-4.64 2.12-5.75 6-5"/><path fill="#03abc8" d="M794 648c0 .05 1 0 1 0-.04-2.08-.77-5.76 1-7 1.79-1.25 5.99.94 8 0 1.2-3.66-5.82-1.14-7-2-1.54-1.12-.83-3.21-1-5 2.52-.56 6.3 1.19 8-1h-10c.34 4.97-.45 10.04 0 15"/><path fill="#026381" d="M797 639v-4c1.33.86 10.38-.36 7-2-1.7 2.19-5.48.44-8 1 .17 1.79-.54 3.88 1 5"/><path fill="#01a6c9" d="M851 648c-2.56-4.8-2.36-12.96-8-15-2.19 4.94-5.09 9.69-6 15 3.69-4.2 10.18-3.64 14 0m-6-11c1.32 3.72.64 5.99-4 5 1.44-1.63 1.18-5.19 4-5"/><path fill="#000b13" d="M539 634c-6.56-1.22-10.49 9.72-3 12s10.13-10.67 3-12"/><path fill="#026b8a" d="M751 640v-5h4c-3.82-2.41-7.47 2.89-4 5"/><path fill="#01435c" d="M381 638c-.6 1.52-3.89.73-5 1v-4c-1.94.78-.61 3.43-1 5 1.93-.18 5.44.75 6-2"/><path fill="#00050d" d="M381 638c1.15-2.89-3.08-4.12-5-3v4c1.11-.27 4.4.52 5-1"/><path fill="#01192d" d="M423 640c12.2.7-1.31-11.32 0 0"/><path fill="#000c1a" d="M487 640c12.2.7-1.31-11.32 0 0"/><path fill="#00101b" d="M751 640c2.87 1.75 8.02-2.46 4-5h-4z"/><path fill="#031f36" d="M779 635c-3.88-.75-7.46.36-6 5 3.23.54 7.26-1.11 6-5"/><path fill="#011c2e" d="M642 642c-1.25-1.9-1.02-4.69-3-6-1.58 3.57-2.88 7.43 3 6"/><path fill="#001623" d="M403 642c.77-9.85-8.71.97 0 0"/><path fill="#011627" d="M452 642c.77-9.84-8.71.97 0 0"/><path fill="#010e1f" d="M845 637c-2.82-.19-2.56 3.37-4 5 4.64.99 5.32-1.28 4-5"/><path fill="#034b5f" d="M699 646v-4c1.76.91 10.07-.33 6-3 .04 3.62-4.78 1.39-7 2 .17 1.79-.54 3.88 1 5"/><path fill="#016d88" d="M750 648c2.06-1.07.53-4.12 1-6 2.96.12 5.26.5 7-2-4.49 4.49-8.35-1.43-8 8"/><path fill="#00e2fa" d="M795 648h9c-2.28-1.68-6.03.05-8-2-.51-1.49.39-3.47 0-5-1.77 1.24-1.04 4.92-1 7"/><path fill="#035368" d="M796 646c.05.15 1 0 1 0v-4c1.64-.62 6.28 1.2 7-1-2.01.94-6.21-1.25-8 0 .39 1.53-.51 3.51 0 5"/><path fill="#015271" d="M535 648c2.53 1.05 16.45 1.19 9-2-2.19 1.28 2.09.61 2 2-3.49-.67-7.56.89-11 0"/><path fill="#0390b4" d="M804 648h1c-.19-3.28-5.51-2-8-2 0 0-.95.15-1 0 1.97 2.05 5.72.32 8 2"/><path fill="#004d6b" d="M696 648c1.51 2.15 11.98.98 10-1-2.35 2.25-6.83.4-10 1"/><path fill="#01435c" d="M594 648h-10c.97 1.39 9.34 2.02 10 0"/><path fill="#024562" d="M805 648h-10s-1 .05-1 0c1.67 1.74 9.28 1.79 11 0"/></svg>